<?xml version="1.0" encoding="utf-8"?>
<!-- Generator: Adobe Illustrator 18.0.0, SVG Export Plug-In . SVG Version: 6.00 Build 0)  -->
<!DOCTYPE svg PUBLIC "-//W3C//DTD SVG 1.1//EN" "http://www.w3.org/Graphics/SVG/1.1/DTD/svg11.dtd">
<svg version="1.1" id="Capa_1" xmlns="http://www.w3.org/2000/svg" xmlns:xlink="http://www.w3.org/1999/xlink" x="0px" y="0px"
	 width="612px" height="612px" viewBox="0 90 612 612" enable-background="new 0 90 612 612" xml:space="preserve">
<g>
	<g id="_x34__4_">
		<g>
			<path fill="#FFFFFF" d="M606.2,668.7l-158-155.5c41.4-45,66.8-104.4,66.8-169.8C515,203.4,399.7,90,257.5,90S0,203.4,0,343.4
				s115.3,253.4,257.5,253.4c61.4,0,117.8-21.3,162.1-56.6l158.6,156.1c7.7,7.6,20.3,7.6,28,0S613.9,676.3,606.2,668.7z
				 M257.5,557.8c-120.3,0-217.9-96-217.9-214.4S137.2,129,257.5,129s217.9,96,217.9,214.4S377.8,557.8,257.5,557.8z"/>
		</g>
	</g>
</g>
</svg>
