<?xml version="1.0" standalone="no"?>
<!DOCTYPE svg PUBLIC "-//W3C//DTD SVG 1.1//EN" "http://www.w3.org/Graphics/SVG/1.1/DTD/svg11.dtd" >
<svg xmlns="http://www.w3.org/2000/svg">
<metadata>
<json>
{
	"fontFamily": "themeblvd-social",
	"majorVersion": 1,
	"minorVersion": 0,
	"fontURL": "",
	"designer": "Theme Blvd",
	"designerURL": "http://themeblvd.com",
	"version": "Version 1.0",
	"fontId": "themeblvd-social",
	"psName": "themeblvd-social",
	"subFamily": "Regular",
	"fullName": "themeblvd-social",
	"description": "Generated by IcoMoon"
}
</json>
</metadata>
<defs>
<font id="themeblvd-social" horiz-adv-x="512">
<font-face units-per-em="512" ascent="480" descent="-32" />
<missing-glyph horiz-adv-x="512" />
<glyph unicode="&#x20;" d="" horiz-adv-x="256" />
<glyph unicode="&#xe600;" d="M256 480c-141.382 0-256-114.618-256-256s114.618-256 256-256 256 114.618 256 256-114.618 256-256 256zM404.571 161.526c0-11.105-10.353-24.5-37.535-24.5l-33.534-0.026c-3.854 0-10.073-3.453-10.073-7.803v-61.533c0-2.586 2.285-4.144 0-4.144-1.143 0-0.176 0.525-1.537 1.572l-82.33 67.98c-5.671 6.434-20.312 9.784-20.312 9.784h-73.499c-26.613 0-38.322 6.8-38.322 18.669s0 158.868 0 171.5c0 12.639 11.387 25.831 38.183 25.831h220.467c27.764 0 38.492-13.573 38.492-25.831 0-12.249 0-160.4 0-171.499z" />
<glyph unicode="&#xe601;" d="M256 480c-141.386 0-256-114.614-256-256 0-141.384 114.614-256 256-256 141.384 0 256 114.616 256 256 0 141.386-114.616 256-256 256zM345.024 120.994h-178.049c-41.634 0-75.323 33.688-75.323 75.328 0 36.9 26.568 67.653 61.629 74.087v1.235c0 26.503 21.433 47.936 47.938 47.936 9.856 0 19.027-2.95 26.633-8.085 14.109 21.367 38.281 35.475 65.81 35.475 43.484 0 78.75-35.269 78.75-78.748l-0.069-1.71c28.072-10.955 48.001-38.21 48.001-70.189 0.001-41.64-33.688-75.329-75.32-75.329z" />
<glyph unicode="&#xe602;" d="M256.071 480c-141.379 0-255.993-114.607-255.993-255.989 0-141.384 114.615-256.010 255.994-256.010 141.378 0 256.006 114.626 256.006 256.010-0.001 141.382-114.629 255.989-256.007 255.989zM375.299 318.074l-122.488-97.164-122.478 97.164h244.966zM114.186 305.128l86.308-68.489-86.308-86.322v154.811zM125.667 133.601l90.557 90.552 35.753-28.345 0.667-0.785 0.167 0.11 0.083-0.051 0.281 0.373 38.030 30.139 91.994-91.994-257.532 0.001zM396.777 148.233l-89.852 89.849 89.852 71.261v-161.11z" />
<glyph unicode="&#xe603;" d="M345.445 197.212h17.894v-17.896h-17.894v17.896zM345.445 125.685h17.894v-17.837h-17.894v17.837zM345.445 161.423h17.894v-17.844h-17.894v17.844zM184.604 340.185h142.945v-107.236h-142.945v107.236zM345.445 268.684h17.894v-17.894h-17.894v17.894zM345.445 304.423h17.894v-17.87h-17.894v17.87zM184.604 215.051h142.945v-107.205h-142.945v107.205zM345.445 232.949h17.894v-17.898h-17.894v17.898zM345.445 340.185h17.894v-17.894h-17.894v17.894zM148.84 340.185h17.868v-17.894h-17.868v17.894zM148.84 197.212h17.868v-17.896h-17.868v17.896zM148.84 125.685h17.868v-17.837h-17.868v17.837zM256.078 480.001c-141.395 0-256-114.63-256-256 0-141.423 114.606-256 256-256 141.364 0 256 114.577 256 256 0 141.369-114.635 256-256 256zM381.185 89.945h-250.213v268.079h250.213v-268.079zM148.84 161.423h17.868v-17.844h-17.868v17.844zM148.84 232.949h17.868v-17.898h-17.868v17.898zM148.84 304.423h17.868v-17.87h-17.868v17.87zM148.84 268.684h17.868v-17.894h-17.868v17.894z" />
<glyph unicode="&#xe604;" d="M0.078 224.001c0 141.386 114.614 256 256 256 141.389 0 256-114.614 256-256 0-141.389-114.611-256-256-256-141.386 0-256 114.611-256 256zM214.533 265.841l123.634 30.854v-111.378c-6 2.522-13.546 3.773-21.317 3.773-4.771 0-13.772-2.773-19.545-5.773-10.794-5.77-17.317-15.045-17.317-24.814 0-5.272 2.272-11.045 5.523-15.045 4.249-4.772 11.021-7.271 20.066-7.271 10.771 0 22.066 4.749 31.089 12.771 8.27 7.772 12.549 17.816 12.549 30.361v158.512l-145.73-35.375v-152.499c-5.011 2.271-12.033 3.521-19.805 3.521-4.772 0-9.784-1-15.309-3.25-13.794-5.522-22.316-15.816-22.316-27.089 0-5.277 2.261-11.050 5.522-15.050 4.262-4.773 11.284-7.271 20.307-7.271 14.807 0 33.113 10.771 38.889 23.32 2 4.501 3.761 13.273 3.761 19.546 0 0 0-6.272 0 0l-0.001 122.157z" />
<glyph unicode="&#xe605;" d="M256.092 480.001c-141.397 0-256.018-114.629-256.018-256 0-141.382 114.621-256 256.019-256 141.365 0 255.981 114.618 255.981 256-0.001 141.371-114.617 256-255.982 256zM206.33 124.723l-0.016-0.010c-5.523-5.49-13.061-8.857-21.438-8.857-8.372 0-15.895 3.378-21.411 8.867 0-0.010 0-0.010 0-0.010l-0.011 0.010c0 0 0 0 0.011 0-5.502 5.5-8.895 12.984-8.895 21.317 0 8.349 3.392 15.848 8.895 21.372v-0.024c5.517 5.507 13.040 8.88 21.411 8.88 8.378 0 15.909-3.372 21.438-8.88v0.024l0.006-0.024c0 0 0 0-0.006 0 5.528-5.521 8.89-13 8.906-21.349-0.016-8.321-3.378-15.816-8.89-21.316zM261.42 115.586v0.082h-0.007c-0.043 28.548-11.179 55.494-31.311 75.604-20.141 20.174-47.056 31.343-75.503 31.366v43.572c41.519-0.023 79.102-16.903 106.396-44.2 27.281-27.299 44.158-64.916 44.191-106.425l-43.766 0.001zM339.129 115.586c-0.066 101.799-82.744 184.604-184.454 184.689v43.552c62.9-0.031 119.87-25.611 161.215-66.955 41.328-41.366 66.897-98.37 66.941-161.286h-43.702z" />
<glyph unicode="&#xe606;" d="M256.078 480.001c-141.385 0-256.002-114.614-256.002-256 0-141.378 114.617-256 256.002-256 141.384 0 255.998 114.622 255.998 256 0 141.386-114.616 256-255.998 256zM435.883 331.62h-32.704l-54.545-116.975c-0.087-0.461-0.227-0.923-0.442-1.365-0.208-0.451-0.48-0.856-0.762-1.224l-18.289-39.232h-0.139l24.121-51.728c0.025-0.051 0.057-0.105 0.084-0.156 1.424-3.052 0.094-6.679-2.949-8.105-0.838-0.389-1.723-0.562-2.584-0.562v-0.004h-15.353c6.71-0.025 12.158-5.466 12.158-12.179 0-6.732-5.46-12.188-12.199-12.188-6.712 0-12.173 5.455-12.173 12.188 0 6.713 5.433 12.156 12.133 12.179h-146.071c6.755-0.025 12.231-5.506 12.231-12.263 0-6.771-5.506-12.271-12.27-12.271-6.771 0-12.264 5.489-12.264 12.271 0 6.756 5.465 12.239 12.221 12.263h-18.316c-3.367 0-6.091 2.728-6.091 6.087 0 3.361 2.725 6.101 6.091 6.101h170.329l-22.557 48.368h-139.001l-50.907 109.166v0.52h241.193l26.95 57.799 0.021-0.008c0.967 2.071 3.078 3.52 5.519 3.52h36.562c3.361 0 6.090-2.728 6.090-6.092 0.002-3.369-2.727-6.095-6.087-6.11z" />
<glyph unicode="&#xe607;" d="M256.078 480.001c-141.383 0-256.001-114.618-256.001-256s114.617-256 256-256c141.384 0 256 114.618 256 256 0.001 141.382-114.616 256-255.999 256zM117.346 87.429l13.833 80.060 66.058-66.038-79.891-14.022zM206.367 110.534l-65.914 65.916 150.648 150.647 65.9-65.906-150.634-150.657zM394.945 299.147l-27.801-27.809-65.899 65.894 27.801 27.806c9.438 9.442 18.878 0 18.878 0l47.022-47.017c-0.001 0.002 9.443-9.44-0.001-18.874z" />
<glyph unicode="&#xe608;" d="M300.278 212.451c-0.267 0.328-23.761 28.864-45.556 28.864-21.906 0-25.954-21.831-25.959-28.864 0-0.005 0-0.005 0-0.012 0 0 0 0 0-0.006 0.004-7.032 4.053-28.866 25.959-28.866 21.795 0 45.29 28.538 45.556 28.866h0.016l-0.006 0.006c0 0.007 0.006 0.012 0.006 0.012h-0.016zM256.078 480.001c-141.387 0-256-114.614-256-256 0-141.382 114.613-256 256-256 141.384 0 256 114.618 256 256 0 141.386-114.617 256-256 256zM386.979 150.622c-38.457 0-63.684 37.229-66.15 37.229-2.459 0-23.84-37.229-66.298-37.229-36.611 0-53.84 33.857-53.84 37.229 0-3.988-14.306-37.229-58.917-37.229-54.761 0-62.148 43.055-62.148 52.262 0 0 20 0 34.459 0 0-10.427 10.152-25.464 27.689-25.464 17.539 0 30.152 17.792 30.152 34.055 0 16.262-11.385 30.687-30.152 30.687-18.768 0-25.842-13.042-25.842-13.042h-30.919l16.149 92.509h95.527v-27.614h-70.605c-4.309-25.162-6.461-39.275-6.461-39.275 2.461 0 6.461 13.194 35.072 13.194 35.381 0 44.765-31.607 45.996-31.607 1.232 0 12.923 38.509 53.84 38.509 40.919 0 64.764-38.509 66.298-38.509 1.538 0 25.539 38.509 66.15 38.509 40.609 0 58.142-33.29 58.142-61.821 0.001-28.536-19.687-62.393-58.142-62.393zM387.25 241.314c-21.795 0-45.294-28.535-45.563-28.866h-0.017c0 0 0.012-0.002 0.012-0.010l-0.012-0.006h0.017c0.268-0.328 23.767-28.866 45.563-28.866 21.897 0 25.948 21.833 25.953 28.866 0 0.006 0 0.006 0 0.006 0 0.006 0 0.006 0 0.010-0.003 7.036-4.054 28.866-25.953 28.866z" />
<glyph unicode="&#xe609;" d="M256.063 480.001c-141.373 0-255.985-114.623-255.985-256.004 0-141.377 114.612-255.996 255.985-255.996 141.392 0 256.015 114.618 256.015 255.996 0 141.381-114.623 256.004-256.015 256.004zM271.949 317.557c-4.994 7.121-14.259 10.696-22.828 10.696h-2.858c-14.258-1.419-27.101-9.274-30.667-24.969-0.721-3.559-2.853-7.128-7.135-7.843l-39.945 4.998c-2.851 0.711-7.134 2.845-5.709 8.552 8.559 44.95 47.083 60.633 83.456 62.771h8.57c19.978 0 45.655-5.708 62.055-20.688 19.979-18.53 17.81-43.514 17.81-70.605v-64.202c0-19.25 7.867-27.812 15.701-37.802 2.156-3.56 2.856-7.849-0.711-10.711-7.833-7.117-22.811-19.965-31.388-27.1-2.846-2.138-6.411-2.138-9.988-0.709-13.546 11.41-15.691 16.403-23.524 27.104-13.553-14.261-24.974-22.118-38.522-26.396-8.545-2.138-17.826-3.56-29.237-3.56-34.244 0-61.352 21.404-61.352 63.477 0 33.525 17.836 56.35 44.229 67.045 13.548 6.431 29.956 9.272 46.362 11.417 10.694 1.436 21.397 2.146 30.668 2.841v5.711c-0.004 9.989 0.708 21.408-4.987 29.973zM379.956 111.245c-4.155-3.333-8.578-6.305-12.988-8.967l-0.188-0.127c-33.688-21.172-77.145-34.156-115.543-35.006-1.211-0.025-2.4-0.044-3.586-0.044-60.361 0.019-105.261 33.061-146.222 68.621-1.994 1.58-3.408 3.989-3.395 6.649-0.022 2.040 0.855 4.034 2.317 5.401 1.463 1.4 3.469 2.117 5.436 2.11 1.542 0 3.083-0.404 4.609-1.211 43.652-24.223 86.907-48.816 139.909-48.787 1.221 0 2.462 0.022 3.7 0.038 33.726 0.728 70.131 8.974 104.842 23.026v0.051l3.188 1.271 2.455 1.023c1.644 0.718 3.422 1.499 5.167 2.207 1.534 0.71 3.189 1.094 4.789 1.077 5.076 0 9.778-3.742 9.854-9.284 0.032-3.126-1.733-6.114-4.344-8.048zM399.767 96.612c-1.677-1.328-3.61-2.228-5.911-2.251h-0.057c-1.544 0-3.344 0.518-4.742 1.856-1.445 1.344-2.12 3.337-2.088 5.011 0 1.128 0.244 2.173 0.597 3.139 1.579 4.116 3.934 10.334 5.891 16.55 1.966 6.171 3.421 12.516 3.376 15.943 0.023 0.899-0.088 1.521-0.167 1.773-0.054 0.056-0.145 0.087-0.255 0.137-0.39 0.197-1.056 0.412-1.956 0.6-1.78 0.39-4.366 0.596-7.258 0.596-4.085 0-8.821-0.379-13.266-0.844-5.178-0.757-9.611-1.189-12.646-1.821l-0.231-0.053-0.303-0.027c-0.309-0.022-0.642-0.050-1.022-0.050-1.545 0-3.288 0.4-4.788 1.63-1.51 1.193-2.409 3.271-2.354 5.061 0.075 3.283 1.886 5.41 4.065 7.050 3.479 2.527 7.224 4.648 11.345 6.345v0.168l3.513 1.149 0.1 0.026 6.232 2.090 0.012-0.422c6.144 1.355 12.312 1.882 17.888 1.899 7.767-0.045 14.2-0.962 18.609-2.661 1.501-0.634 2.856-1.221 4.277-2.799l0.178-0.201 0.146-0.215c1.4-2.119 2.133-4.672 2.255-8.068v0l0.046-2.022c-0.21-12.766-5.697-35.407-21.486-49.589zM279.249 256.384c-11.878 0-23.777-0.774-34.077-3.169-19.024-5.534-34.072-17.43-34.072-42.792 0-19.822 10.302-33.289 27.731-33.289 2.396 0 4.753 0.801 6.34 0.801 10.3 2.395 19.822 9.499 25.377 20.612 9.489 15.854 8.699 30.105 8.699 48.324v9.513h0.002z" />
<glyph unicode="&#xe60a;" d="M215.864 348.695c5.563 0 10.081-4.517 10.081-10.081 0-5.575-4.518-10.092-10.081-10.092-5.575 0-10.091 4.517-10.091 10.092-0.001 5.565 4.516 10.081 10.091 10.081zM256.088 480.001c-141.396 0-256.011-114.604-256.011-255.99 0-141.388 114.613-256.010 256.011-256.010 141.367 0 255.99 114.622 255.99 256.010 0 141.386-114.635 255.99-255.99 255.99zM148.652 181.807c0-11.149-9.035-20.16-20.175-20.16-11.135 0-20.141 9.011-20.141 20.16v86.237c0 11.14 9.005 20.152 20.141 20.152 11.14 0 20.175-9.013 20.175-20.152v-86.237zM350.256 271.433v-131.089c0-11.738-9.523-21.283-21.284-21.283h-15.359c0.522-1.788 0.791-3.667 0.791-5.585v-42.572c0-11.128-9.017-20.162-20.153-20.162-11.129 0-20.161 9.031-20.161 20.162v42.572c0 1.929 0.284 3.795 0.812 5.585h-37.441c0.508-1.788 0.782-3.667 0.782-5.585v-42.572c0-11.128-9.026-20.162-20.154-20.162-11.127 0-20.165 9.031-20.165 20.162v42.572c0 1.929 0.286 3.795 0.814 5.585h-15.372c-11.736 0-21.269 9.546-21.269 21.283v147.85h188.171v-16.761h-0.012zM162.095 301.648c0 28.814 19.28 53.972 47.808 67.252l-3.774 5.683-3.748 5.606-8.375 12.569c-1.017 1.542-0.611 3.634 0.933 4.649 1.552 1.025 3.645 0.62 4.669-0.932l8.995-13.483 3.758-5.667 3.836-5.744c12.144 4.711 25.686 7.35 39.961 7.35 14.296 0 27.858-2.639 39.98-7.35l3.839 5.744 12.761 19.15c1.026 1.552 3.116 1.977 4.67 0.932 1.521-1.024 1.963-3.107 0.91-4.649l-15.887-23.858c28.522-13.269 47.823-38.438 47.823-67.252h-188.159zM404.022 181.807c0-11.149-9.019-20.16-20.145-20.16-11.146 0-20.184 9.011-20.184 20.16v86.237c0 11.14 9.038 20.152 20.184 20.152 11.118 0 20.145-9.013 20.145-20.152v-86.237zM296.506 348.695c5.562 0 10.081-4.517 10.081-10.081 0-5.575-4.52-10.092-10.081-10.092-5.574 0-10.084 4.517-10.084 10.092 0 5.565 4.51 10.081 10.084 10.081z" />
<glyph unicode="&#xe60b;" d="M356.749 248.933c-32.991 0-37.584-32.933-37.584-32.933h70.157c0 0 0.445 32.933-32.573 32.933zM197.587 216h-62.785v-56h55.647c0.937 0 2.335-0.206 3.98-0.184 8.864 0.201 25.645 2.316 25.645 27.295 0 29.646-22.487 28.889-22.487 28.889zM256.088 480.001c-141.396 0-256.011-114.595-256.011-255.99 0-141.388 114.613-256.010 256.011-256.010 141.367 0 255.99 114.622 255.99 256.010 0 141.386-114.635 255.99-255.99 255.99zM306.293 318.857h90.317v-22.857h-90.317v22.857zM265.417 183.888c0-65.198-67.828-63.889-67.828-63.889h-114.233v217.144h114.231c33.768 0 60.417-19.579 60.417-57.793 0-38.215-32.588-41.539-32.588-41.539 42.968 0.001 40.001-53.923 40.001-53.923zM430.288 187.429h-110.693c0-37.715 37.583-38.647 37.583-38.647 35.495 0 34.257 21.504 34.257 21.504h37.606c0-61.715-73.121-54.943-73.121-54.943-87.695 0-82.052 82.596-82.052 82.596s-0.096 82.137 82.052 82.137c86.469-0.003 74.368-92.647 74.368-92.647zM212.687 275.316c0 22.225-15.098 20.684-15.098 20.684h-62.786v-44.571h58.927c10.062 0 18.957 1.685 18.957 23.887z" />
<glyph unicode="&#xe60c;" d="M491.961 323.653c-19.457 45.965-51.896 85.009-92.728 112.609-20.444 13.808-42.978 24.75-67.027 32.222-24.073 7.494-49.656 11.534-76.123 11.518-35.305 0.016-69.013-7.159-99.648-20.124-45.977-19.447-85.035-51.883-112.636-92.736-13.8-20.42-24.737-42.96-32.214-67.030-7.492-24.055-11.52-49.643-11.508-76.116-0.012-35.289 7.152-69.028 20.122-99.658 19.442-45.954 51.886-85.015 92.728-112.61 20.432-13.806 42.956-24.737 67.031-32.22 24.066-7.497 49.65-11.506 76.124-11.506 35.295 0 69.017 7.15 99.646 20.11 45.965 19.452 85.027 51.88 112.632 92.736 13.785 20.434 24.728 42.976 32.211 67.039 7.488 24.052 11.507 49.634 11.507 76.112 0.016 35.299-7.148 69.021-20.117 99.654zM460.072 137.829c-16.792-39.705-44.894-73.522-80.239-97.41-17.665-11.938-37.134-21.384-57.934-27.856-20.771-6.46-42.862-9.933-65.817-9.948h-0.020v221.136h-221.358c0 0.077 0 0.159 0 0.244 0 30.613 6.192 59.694 17.383 86.163 16.789 39.705 44.889 73.547 80.229 97.426 17.669 11.931 37.135 21.364 57.925 27.838 20.785 6.461 42.876 9.958 65.841 9.958v-221.386h221.373c0-30.61-6.188-59.676-17.383-86.165z" />
<glyph unicode="&#xe60d;" d="M256.076 480.091c-141.381 0-255.999-114.644-255.999-256.090 0-141.428 114.617-256.091 255.998-256.091 141.375 0 256.002 114.663 256.002 256.091 0.001 141.446-114.627 256.090-256.001 256.090zM162.655 148.119c-41.907 0-75.88 33.979-75.88 75.882 0 41.925 33.972 75.914 75.88 75.914 41.907 0 75.879-33.989 75.879-75.914 0-41.902-33.972-75.882-75.879-75.882zM349.479 148.119c-41.9 0-75.868 33.979-75.868 75.882 0 41.925 33.968 75.914 75.868 75.914 41.908 0 75.881-33.989 75.881-75.914 0.001-41.902-33.971-75.882-75.881-75.882z" />
<glyph unicode="&#xe60e;" d="M159.886 174.339l47.586 12.84-21.291 43.584c-40.054-26.034-26.295-56.424-26.295-56.424zM256.081 480.001c-141.374 0-256.004-114.629-256.004-256 0-141.382 114.631-256 256.004-256 141.375 0 255.996 114.618 255.996 256-0.001 141.371-114.622 256-255.996 256zM280.634 173.040l-33.006 67.095c15.929 2.658 30.889 1.906 44.024-0.511l13.953-25.938 48.496 13.090c0 0-58.822 41.395-129.264 21.155l39.249-79.683-142.843-41.128c0 0-41.48 91.16 52.13 129.828l-18.094 37.017 44.399 5.034 14.974-30.412c0.898 0.167 1.701 0.375 2.606 0.511 154.286 26.276 206.001-54.972 206.001-54.972l-142.625-41.086z" />
<glyph unicode="&#xe60f;" d="M313.167 73.008c-8.339 43.66-19.301 82.449-31.412 116.364-35.597-11.601-62.874-31.082-82.633-50.018-19.192-18.382-31.258-36.149-36.886-45.409 26.47-19.643 59.090-31.353 94.478-31.353 19.885 0.003 38.881 3.726 56.453 10.416zM115.122 259.951h0.031c0.808-0.010 1.636-0.010 2.463-0.010 29.253-0.010 77.597 3.347 125.597 17.633-23.603 44.774-45.708 73.453-56.75 86.489-41.345-20.455-72.63-58.27-84.042-103.922 3.539-0.118 7.776-0.19 12.701-0.19zM222.919 376.848c13.792-17.661 33.979-46.558 54.858-86.947 29.739 12.763 57.25 30.833 78.097 55.791-27.241 21.831-61.641 34.95-99.159 34.95-11.604 0-22.877-1.379-33.796-3.794zM179.138 170.479c22 20.049 51.753 40.171 89.529 52.803-3.032 7.293-6.077 14.32-9.152 21.050-56.572-17.852-112.39-20.521-144.357-20.736h-0.036c-7.009 0-12.832 0.143-17.378 0.31-0.035-0.78-0.064-1.542-0.064-2.292 0.012-38.992 14.201-74.592 37.601-102.295 8.363 12.765 22.672 31.877 43.857 51.16zM256.078 480.001c-141.389 0-256-114.614-256-256 0-141.372 114.612-256 256-256 141.384 0 256 114.628 256 256 0 141.386-114.617 256-256 256zM256.713 17.812c-112.58 0-203.833 91.25-203.833 203.804 0 112.571 91.253 203.824 203.833 203.834 112.581-0.012 203.84-91.263 203.854-203.834-0.013-112.554-91.274-203.804-203.854-203.804zM293.639 257.087c3.584-7.911 7.13-16.165 10.641-24.762 14.434 2.564 29.749 4.046 46.071 4.046h0.145v-0.012c20.289 0 42.017-2.375 65.040-7.253-1.584 34.14-14.027 65.42-33.912 90.659-24.991-28.501-55.846-48.581-87.985-62.678zM350.444 200h-0.462c-11.432 0-22.287-0.833-32.617-2.311 11.141-31.771 21.29-67.378 29.359-106.859 33.961 23.422 58.327 59.634 66.142 101.685-22.615 5.13-43.455 7.485-62.422 7.485z" />
<glyph unicode="&#xe610;" d="M260.242 325.264l-109.558-67.616 109.558-67.636 109.559 67.636zM256.088 480.001c-141.396 0-256.011-114.604-256.011-255.99 0-141.388 114.613-256.010 256.011-256.010 141.367 0 255.99 114.622 255.99 256.010 0 141.386-114.635 255.99-255.99 255.99zM369.35 110.555l-108.875-65.262-108.9 65.262v23.9l32.642-21.32 76.258 63.249 76.247-63.249 32.628 21.32v-23.9zM336.283 126.618l-76.034 63.399-76.015-63.399-108.664 70.884 75.132 60.144-75.132 60.145 108.665 70.864 76.014-63.404 76.035 63.404 108.655-70.864-75.14-60.144 75.14-60.145-108.656-70.884z" />
<glyph unicode="&#xe611;" d="M141.626 119.423h57.017v23.307h-57.017v-23.307zM256.078 480.001c-141.383 0-256-114.614-256-256 0-141.382 114.617-256 256-256 141.384 0 256 114.618 256 256 0 141.386-114.617 256-256 256zM269.605 345.861h87.699v-84.822h-87.699v84.822zM216.878 241.512h-35.315v-60.633h13.937v-20.918h20.92v-55.161h-92.57v55.161h20.923v20.918h13.933v60.634h-35.314v76.138h21.215v22.169h51.081v-22.169h21.192l-0.002-76.139zM395.845 227.301h-22.162v-122.405h-38.537v62.648h-20.251v-62.648h-57.829v122.405h-22.152v58.8h17.32v-39.511h122.42v39.511h21.188l0.003-58.8z" />
<glyph unicode="&#xe612;" d="M107.682 203.768c0-11.75 0.804-29.355 25.942-29.355 20.265 0 24.326 9.373 24.326 18.083h18.637l0.357-0.038h16.334v11.31h-85.596zM159.973 219.238c0 9.592 0.813 23.297-26.347 23.297-26.358 0-25.942-14.889-25.942-23.297h52.289zM237.284 238.442c-12.876 0-12.659-15.557-12.659-38.009 0-28.211 1.992-40.005 12.659-40.005 11.343 0 13.346 11.794 13.346 40.005 0 22.453 0.208 38.009-13.346 38.009zM289.666 221.63c0-8.041 1.334-17.862 11.604-17.862 18.556 0 15.646 25.018 15.646 37.3-15.645-0.672-27.25 0.666-27.25-19.438zM256.078 480.001c-141.372 0-256-114.615-256-255.995 0-141.405 114.628-256.004 256-256.004 141.384 0 256 114.6 256 256.004 0 141.381-114.617 255.995-256 255.995zM401.628 211.372v-55.276h-41.077v55.276l-12.806 26.006v-29.816c0-6.918 0.888-14.067 1.546-20.983h-29.245l-1.346 14.938h-0.46c-6.681-11.605-15.855-17.188-29.472-17.188-2.767 0-5.312 0.271-7.646 0.771-0.762-21.046-5.262-44.029-31.169-44.029-12.015 0-20.681 3.812-26.442 14.691h-0.445v-12.439h-29.787v23.083c-4.686-2.062-10.292-3.977-16.522-5.353-11.647-2.603-26.158-4.27-43.13-4.27-73.781 0-83.512 21.733-83.512 52.654 0 27.027 8.118 50.136 83.512 50.136 17.722 0 31.786-1.292 42.962-3.647 6.511-1.375 12.024-3.103 16.69-5.172v53.026h31.347v-58.896h0.439c6.438 9.572 14.22 12.898 25.565 12.898 9.218 0 15.648-2.992 20.17-7.789 11.082 8.517 28.521 8.985 46.116 8.717v8.708c0 9.607-1.346 16.532-12.728 16.532-10.95 0-11.834-8.264-11.834-17.191h-30.818c0 13.611 4.217 22.329 11.605 27.458 7.134 5.369 17.417 7.386 29.474 7.386 5.204 0 9.798-0.298 13.894-0.865l-7.385 14.998h44.892l29.376-67.434 31.281 67.434h41.896l-54.941-104.364z" />
<glyph unicode="&#xe613;" d="M256.002 480c-141.386 0-256.002-114.615-256.002-256 0-141.384 114.616-256 256.002-256 141.381 0 255.998 114.616 255.998 256 0 141.385-114.617 256-255.998 256zM361.432 139.847c-35.554-63.854-116.155-86.787-179.991-51.232-63.85 35.497-87.714 116.617-51.221 179.922 7.362 12.772 18.448 24.579 21.107 27.242 1.326 1.322 8.708-3.306 6.451-7.065-12.114-42.241-6.367-71.524 8.143-99.333 1.048-0.642 6.348-3.004 6.925-0.926 3.164 86.881 48.509 140.986 102.238 177.713 30.699 9.503 56.254 12.563 65.169 7.614 24.107-13.47 62.287-160.237 21.179-233.935z" />
<glyph unicode="&#xe614;" d="M256.078 480c-141.336 0-255.913-114.619-255.913-255.995 0-141.377 114.577-256.004 255.914-256.004 141.339 0 255.909 114.628 255.909 256.004-0.001 141.376-114.571 255.995-255.91 255.995zM330.307 328.239c-13.859 0-28.824 0-35.916 0-7.096 0-14.283-7.431-14.283-12.95 0-5.503 0-36.939 0-36.939s44.373 0 50.131 0c-2.015-28.327-6.151-54.237-6.151-54.237h-44.241v-160.578h-65.924v160.578h-32.085v54.030h32.085c0 0 0 36.104 0 44.185 0 8.083-1.626 62.16 67.556 62.16 9.275 0 30.324 0 48.829 0-0.001-23.474-0.001-48.891-0.001-56.249z" />
<glyph unicode="&#xe615;" d="M304.916 230.825c-7.855-34.129-24.354-60.159-52.173-59.954-24.663 0.306-50.264 32.444-40.716 75.606-45.563-74.561-5.135-126.858 43.765-125.919 73.608 1.484 93.737 76.138 49.124 110.267zM256.083 480.091c-141.383 0-256.005-114.655-256.005-256.090 0-141.438 114.622-256.090 256.005-256.090 141.39 0 255.996 114.651 255.996 256.090-0.001 141.435-114.606 256.090-255.996 256.090zM261.044 86.547c-70.541 0-128.066 24.566-128.066 54.708 0 15.668 15.625 29.782 40.45 39.77-2.46 11.298-3.792 23.613-3.811 36.88-0.105 50.198 34.531 118.978 69.069 143.552-22.46-59.757 51.018-59.966 0.528-142.697 34.537-9.785 62.349 18.143 53.754 63.4 29.684-17.214 57.727-37.358 57.505-89.049-0.007-4.095-0.539-8.203-1.301-12.287 24.521-9.971 39.923-24.009 39.923-39.57-0.001-30.138-57.507-54.707-128.051-54.707z" />
<glyph unicode="&#xe616;" d="M256.078 480c-141.326 0-255.91-114.621-255.91-256.010 0-141.401 114.584-255.989 255.91-255.989 141.355 0 255.909 114.588 255.909 255.989 0 141.388-114.553 256.010-255.909 256.010zM326.17 108.512v0.483h-58.553v42.372l46.657 23.412-5.47 11.089-41.188-20.622v15.473l27.364 14.481-6.115 11.257-21.25-11.21v27.287h-29.385v-42.959l-21.467 14.662-6.959-10.304 28.426-19.507v-55.428h-94.602l112.143 268.949 112.349-269.431-41.95-0.004z" />
<glyph unicode="&#xe617;" d="M506.651 276.546c-6.163 29.642-17.497 57.374-32.928 82.271l-187.718-198.617-31.745 52.985c-9.268-21.709-27.108-38.813-49.227-47.255l77.883-71.049 223.735 181.665zM225.959 299.382c-13.319 13.306-31.66 21.536-51.96 21.536-20.302 0-38.647-8.231-51.959-21.536-13.29-13.312-21.513-31.658-21.513-51.973 0-20.317 8.223-38.659 21.513-51.973 13.312-13.315 31.656-21.537 51.959-21.537 20.3 0 38.644 8.22 51.96 21.537 13.299 13.314 21.519 31.656 21.519 51.973 0.001 20.315-8.22 38.661-21.519 51.973zM413.35 182.771l13.989-14.005-137.405-137.472-119.632 119.671c-53.871 0.788-97.282 44.614-97.282 98.695 0 54.527 44.202 98.751 98.735 98.751 43.39 0 80.147-28.046 93.396-66.958l24.783 24.785 59.040-59.057 116.815 123.607c-46.284 66.067-122.928 109.303-209.711 109.303-141.383 0-256-114.649-256-256.090 0-141.433 114.617-256.091 256-256.091 141.395 0 256 114.658 256 256.091 0 12.49-0.95 24.753-2.667 36.765l-96.061-77.995z" />
<glyph unicode="&#xe618;" d="M256.002 480c-141.367 0-256.002-117.511-256.002-262.48 0-115.973 73.352-214.355 175.070-249.070 12.792-2.428 17.491 5.697 17.491 12.633 0 6.258-0.236 26.938-0.348 48.865-71.219-15.875-86.247 30.969-86.247 30.969-11.646 30.342-28.425 38.406-28.425 38.406-23.229 16.293 1.751 15.961 1.751 15.961 25.705-1.852 39.243-27.057 39.243-27.057 22.832-40.121 59.888-28.523 74.498-21.816 2.298 16.961 8.93 28.549 16.254 35.104-56.862 6.631-116.639 29.145-116.639 129.716 0 28.656 10.002 52.072 26.38 70.454-2.658 6.613-11.422 33.308 2.479 69.465 0 0 21.499 7.050 70.416-26.91 20.423 5.817 42.323 8.734 64.079 8.835 21.753-0.102 43.67-3.018 64.129-8.835 48.868 33.96 70.33 26.91 70.33 26.91 13.935-36.157 5.175-62.852 2.517-69.465 16.411-18.382 26.347-41.798 26.347-70.454 0-100.818-59.889-123.009-116.896-129.513 9.183-8.141 17.362-24.117 17.362-48.602 0-35.121-0.298-63.391-0.298-72.033 0-6.986 4.612-15.17 17.587-12.598 101.66 34.745 174.92 133.105 174.92 249.035 0 144.969-114.617 262.48-255.998 262.48zM96.961 103.135c-0.563-1.307-2.567-1.697-4.388-0.799-1.859 0.857-2.898 2.633-2.298 3.939 0.551 1.342 2.555 1.715 4.409 0.824 1.859-0.857 2.919-2.658 2.277-3.964v0zM107.333 91.275c-1.221-1.154-3.61-0.619-5.229 1.213-1.677 1.834-1.987 4.279-0.75 5.459 1.258 1.154 3.573 0.611 5.25-1.213 1.677-1.851 2.003-4.279 0.729-5.459v0zM117.426 76.164c-1.569-1.121-4.136-0.076-5.722 2.258-1.569 2.334-1.569 5.137 0.038 6.258 1.585 1.119 4.115 0.109 5.721-2.199 1.565-2.377 1.565-5.18-0.037-6.317v0zM131.253 61.553c-1.403-1.586-4.393-1.154-6.579 1.012-2.239 2.113-2.86 5.119-1.457 6.707 1.424 1.586 4.43 1.137 6.632-1.012 2.224-2.114 2.899-5.135 1.404-6.707v0zM150.33 53.072c-0.621-2.055-3.498-2.988-6.396-2.113-2.898 0.9-4.79 3.311-4.207 5.383 0.601 2.070 3.494 3.047 6.413 2.113 2.894-0.9 4.79-3.285 4.19-5.383v0zM171.282 51.502c0.070-2.164-2.389-3.955-5.432-3.998-3.060-0.068-5.539 1.68-5.572 3.811 0 2.191 2.405 3.965 5.465 4.016 3.043 0.060 5.539-1.681 5.539-3.829v0zM190.777 54.906c0.364-2.113-1.751-4.279-4.773-4.855-2.973-0.561-5.722 0.746-6.103 2.836-0.368 2.164 1.785 4.338 4.753 4.898 3.026 0.533 5.738-0.73 6.123-2.879v0z" />
<glyph unicode="&#xe619;" d="M239.319 177.435c-3.108 0.321-6.76 0.477-10.964 0.477-2.489 0.321-8.863 0-19.13-0.955-10.111-1.438-20.452-3.744-31.025-6.937-2.489-0.957-5.988-2.391-10.503-4.33-4.51-2.061-9.091-5.021-13.76-8.842-4.511-3.978-8.323-8.938-11.432-14.851-3.574-6.214-5.364-13.722-5.364-22.502 0-17.217 7.772-31.436 23.329-42.612 14.771-11.149 34.991-16.894 60.658-17.216 23.019 0.322 40.592 5.41 52.724 15.306 11.816 9.738 17.727 22.283 17.727 37.59 0 12.455-4.045 23.308-12.127 32.547-8.557 8.774-21.935 19.563-40.133 32.325zM263.595 289.487c0.705 6.556 1.060 12.065 1.060 16.544 0 19.35-4.928 38.853-14.773 58.523-4.62 9.431-10.704 17.105-18.242 23.020-7.7 5.598-16.55 8.555-26.56 8.875-13.231-0.32-24.242-5.682-33.015-16.072-7.398-10.869-10.937-23.024-10.624-36.45 0-17.744 5.17-36.215 15.509-55.4 5.006-8.952 11.466-16.553 19.381-22.781 7.919-6.239 16.963-9.354 27.145-9.354 12.855 0.478 23.572 5.113 32.145 13.915 4.129 6.227 6.797 12.625 7.974 19.18zM256.078 480.001c-141.383 0-256.001-114.618-256.001-256s114.617-256 256-256c141.384 0 256 114.618 256 256 0.001 141.382-114.616 256-255.999 256zM291.678 68.551c-21.666-18.979-52.944-28.807-93.819-29.435-34.208 0.322-59.761 7.649-76.63 21.977-17.031 13.373-25.547 29.397-25.547 48.007 0 9.087 2.772 19.193 8.311 30.351 5.375 11.156 15.105 20.937 29.191 29.373 15.822 9.087 32.444 15.156 49.853 18.156 17.242 2.561 31.563 4 42.962 4.305-3.522 4.648-6.665 9.627-9.414 14.932-3.216 5.135-4.825 11.302-4.825 18.524 0 4.325 0.614 7.94 1.834 10.826 1.075 3.049 2.065 5.855 2.989 8.419-5.557-0.636-10.784-0.956-15.697-0.956-25.997 0.319-45.819 8.534-59.45 24.649-14.275 14.994-21.406 32.464-21.406 52.406 0 24.094 10.104 45.944 30.324 65.572 13.886 11.483 28.316 17.208 43.286 20.718 14.816 3.028 28.708 2.767 41.672 2.767h97.682l-30.149-20.572h-30.133c3.061 0 6.523-1.485 10.344-5.159 3.689-3.828 7.296-6.929 10.828-12.514 3.372-5.262 6.351-10.68 8.961-17.859 2.151-7.179 3.238-15.15 3.238-24.728-0.304-17.556-4.155-31.387-11.589-41.919-3.634-5.104-7.5-9.708-11.567-14.019-4.508-4.305-9.306-8.653-14.414-13.12-2.901-3.033-5.595-6.432-8.064-10.265-2.914-3.988-4.369-8.601-4.369-13.868 0-5.108 1.495-9.321 4.478-12.671 2.538-3.201 4.999-5.986 7.388-8.375l16.573-13.64c10.299-8.454 19.327-17.784 27.086-27.999 7.323-10.37 11.129-23.938 11.436-40.699-0.002-23.767-10.458-44.834-31.363-63.184zM406.9 233.143v-54.857h-28.582v54.857h-45.73v24h45.73v56h28.582v-56h46.874v-24h-46.874z" />
<glyph unicode="&#xe61a;" d="M335.194 287.334v0.050c4.284 0 8.567-0.083 12.867 0.022 5.504 0.134 9.999 4.861 9.999 10.383 0 8.215 0 16.445 0 24.661 0 5.895-4.665 10.578-10.552 10.59-8.198 0-16.398 0.004-24.599 0-5.866-0.012-10.551-4.711-10.551-10.606 0-8.15-0.033-16.299 0.032-24.451 0-1.222 0.233-2.482 0.617-3.633 1.484-4.339 5.45-7 10.316-7.025 3.954 0 7.921 0.009 11.871 0.009zM256.078 276.761c-28.875 0.017-52.35-23.218-52.756-51.96-0.417-29.523 23.212-52.917 51.544-53.516 29.478-0.634 53.311 22.915 53.945 51.565 0.633 29.526-23.19 53.928-52.733 53.911zM154.069 248.609v-0.7c0-38.526-0.008-77.060 0-115.587 0-5.537 4.797-10.305 10.342-10.305 61.1-0.008 122.19-0.008 183.284 0 5.6 0 10.372 4.749 10.372 10.337 0.013 38.478 0 76.977 0 115.446v0.8h-24.845c3.507-11.211 4.579-22.622 3.209-34.249-1.373-11.635-5.135-22.45-11.234-32.449-6.099-10.001-14.029-18.312-23.717-24.901-25.117-17.116-58.201-18.622-84.866-3.654-13.476 7.555-24.057 18.088-31.445 31.69-11 20.249-12.761 41.508-6.306 63.573-8.263-0.001-16.475-0.001-24.794-0.001zM360.229 93.823c1.352 0.229 2.717 0.422 4.049 0.712 10.634 2.254 19.318 11.12 21.4 21.816 0.218 1.168 0.386 2.333 0.581 3.496v208.312c-0.179 1.133-0.348 2.286-0.562 3.419-2.282 11.666-11.905 20.722-23.717 22.345-0.5 0.055-0.966 0.169-1.45 0.251h-208.891c-1.257-0.229-2.528-0.4-3.766-0.683-11.536-2.625-20.070-11.914-21.718-23.6-0.066-0.486-0.169-0.977-0.244-1.464v-208.877c0.239-1.317 0.425-2.649 0.725-3.968 2.549-11.282 12.174-20.028 23.636-21.499 0.547-0.066 1.111-0.184 1.665-0.262l208.292 0.002zM256.078-31.999c-141.379 0-256 114.618-256 256-0.001 141.388 114.621 256 256 256 141.384 0 256-114.611 256-256 0-141.382-114.617-256-256-256z" />
<glyph unicode="&#xe61b;" d="M305.854 253.234c-21.339 0-30.877-11.75-36.211-19.979v-0.375h-0.25c0.062 0.102 0.166 0.25 0.25 0.375v17.136h-40.163c0.529-11.334 0-120.861 0-120.861h40.164v67.51c0 3.604 0.266 7.206 1.34 9.795 2.91 7.215 9.517 14.695 20.609 14.695 14.534 0 20.345-11.084 20.345-27.335v-64.667h40.183v69.302c0.001 37.142-19.826 54.404-46.267 54.404zM167.067 129.528h40.186v120.862h-40.186v-120.862zM187.421 308.659c-13.74 0-22.735-9.023-22.735-20.867 0-11.617 8.736-20.889 22.211-20.889h0.266c14.006 0 22.725 9.272 22.725 20.889-0.263 11.845-8.719 20.867-22.467 20.867zM256.073 480.001c-141.381 0-255.995-114.612-255.995-256 0-141.378 114.613-256 255.995-256 141.388 0 256.005 114.622 256.005 256 0 141.388-114.617 256-256.005 256zM392.605 105.108c0-10.595-8.794-19.191-19.651-19.191h-226.682c-10.85 0-19.654 8.596-19.654 19.191v229.318c0 10.594 8.805 19.18 19.654 19.18h226.684c10.855 0 19.65-8.586 19.65-19.18l-0.001-229.318z" />
<glyph unicode="&#xe61c;" d="M256.078 480.001c-141.393 0-256-114.62-256-256 0-141.399 114.608-256 256-256 141.384 0 256 114.601 256 256 0 141.38-114.628 256-256 256zM270.751 376.184c11.611 13.633 31.254 23.737 47.447 24.394 2.071-18.882-5.544-37.817-16.771-51.43-11.266-13.602-29.694-24.202-47.797-22.802-2.436 18.487 6.68 37.788 17.121 49.838zM362.934 118.379c-13.445-19.639-27.372-39.2-49.321-39.594-21.574-0.406-28.519 12.776-53.169 12.776-24.672 0-32.387-12.395-52.813-13.192-21.177-0.796-37.309 21.175-50.861 40.749-27.705 40-48.834 113.052-20.416 162.374 14.080 24.508 39.298 39.979 66.65 40.406 20.832 0.385 40.467-14.031 53.178-14.031 12.73 0 36.596 17.323 61.703 14.764 10.512-0.428 39.991-4.225 58.927-31.931-1.515-0.952-35.212-20.547-34.804-61.36 0.45-48.74 42.759-64.933 43.251-65.177-0.399-1.107-6.798-23.086-22.325-45.784z" />
<glyph unicode="&#xe61d;" d="M256.078 480.001c-141.393 0-256-114.603-256-255.995 0-141.387 114.608-256.004 256-256.004 141.384 0 256 114.617 256 256.004 0 141.391-114.628 255.995-256 255.995zM85.691 216.866v45.434c0 3.858 3.136 7.017 7.025 7.017h78.558l-34.131-59.488h-44.416c-3.899 0.001-7.036 3.189-7.036 7.037zM141.599 120.834l-26.111-17.746c-3.534-2.415-6.011-0.915-5.533 3.354l3.503 30.433c0.485 4.222 3.908 5.974 7.606 3.837l20.211-11.594c3.717-2.135 3.858-5.867 0.324-8.284zM158.495 140.855c-2.133-3.7-6.903-4.977-10.599-2.844l-20.222 11.611c-3.686 2.117-4.987 6.883-2.854 10.584l93.646 163.112c2.111 3.687 6.904 4.996 10.602 2.842l20.202-11.572c3.705-2.153 4.983-6.915 2.853-10.601l-93.628-163.132zM214.3 209.83l34.133 59.487h30.921c11.959-27.188 20.884-46.171 27.594-59.487h-92.648zM335.233 189.888c-8.068 4.085-48.395 97.145-58.73 121.408-10.339 24.303-41.543 88.913-31.47 93.959 7.205 3.586 33.016-47.29 52.322-77.837 11.028-17.453 28.916-50.591 43.169-77.514 0.181-0.345 0.356-0.712 0.547-1.066 0.643-1.209 1.277-2.425 1.91-3.615 0.19-0.344 0.363-0.668 0.529-0.994 0.577-1.066 1.12-2.113 1.661-3.158 0.309-0.608 0.622-1.188 0.934-1.747 0.35-0.7 0.712-1.4 1.066-2.061 0.49-0.911 0.977-1.817 1.467-2.708 0.055-0.184 0.149-0.316 0.223-0.489 6.169-11.717 10.883-20.744 12.748-24.237 0.15-0.284 0.308-0.551 0.405-0.75 4.967-8.996-4.734-16.512-10.133-18.724-5.419-2.233-8.542-4.488-16.648-0.467zM361.745 147.129l-12.171 19.25c-2.512 4.016-1.227 8.954 2.862 11.083l11.593 5.95c4.102 2.094 9.218 0.389 11.412-3.778l9.618-18.496c2.174-4.183 0.696-9.565-3.254-11.924l-8.289-4.949c-3.938-2.414-9.266-1.115-11.771 2.864zM411.255 91.962c-2.558 8.184-21.986 8.711-30.699 20.973-8.711 12.267-1.512 18.541 1.511 21.462 35.3 19.898 29.188-42.435 29.188-42.435zM421.344 216.866c0-3.849-3.119-7.038-7.021-7.038h-37.685c-0.51 2.051-1.263 4.077-2.316 6.019-1.026 1.827-3.899 7.308-7.545 14.251-5.238 9.992-12.672 24.165-20.711 39.208h68.243c3.899 0 7.027-3.156 7.027-7.014v-45.426h0.008z" />
<glyph unicode="&#xe61e;" d="M256.088 480c-141.385 0-256.010-114.614-256.010-255.999 0-141.379 114.625-256 256.012-256 141.373 0 255.989 114.621 255.989 256-0.002 141.385-114.619 255.999-255.991 255.999zM421.477 204.373v-43.171h-333.598v105.731h43.172v-62.56h247.243v62.56h43.182l0.001-62.56z" />
<glyph unicode="&#xe61f;" d="M255.922 480c-141.382 0-256-114.615-256-255.99 0-141.395 114.618-256.010 256-256.010 141.383 0 256 114.615 256 256.010 0.001 141.375-114.617 255.99-256 255.99zM255.583 390.394c23.94 0 47.129-5.079 68.929-14.986 0-2.356 0-103.799 0-111.465-5.688 5.184-122.87 111.538-127.289 115.542 18.844 7.071 38.458 10.909 58.36 10.909zM88.438 223.229c0 63.023 34.874 119.818 91 148.624 1.896-1.721 60.437-54.857 63.251-57.422-2.896-2.639-143.625-130.499-148.168-134.618-3.906 14.464-6.083 29.054-6.083 43.416zM169.567 80.455c-31.225 18.855-55.672 47.357-69.078 80.96 1.919 1.741 63.492 57.694 69.078 62.772 0-7.696 0-137.203 0-143.732zM270.845 56.762h-30.646c-18.315 1.699-36.083 6.424-53.090 14.047 0 2.399 0 76.299 0 79.771 3.6 0 212.612 0 218.644 0-25.619-52.853-77.17-88.447-134.908-93.818zM413.286 168.205c-2.657 0-67.708 0-71.134 0 0 3.549 0 190.977 0 197.62 49.707-30.274 80.605-84.505 80.605-142.597 0.002-18.719-3.257-37.231-9.471-55.023z" />
<glyph unicode="&#xe620;" d="M229.067 263.199c19.569 0 33.611 1.359 40.221 3.105 0.95 0.25 1.752 0.5 2.379 0.761 6.384 2.404 10.812 5.894 14.312 10.833 3.533 5.125 5.105 10.152 5.126 16.142-0.011 3.88-0.815 6.044-1.761 7.444-1.18 1.643-2.557 2.772-5.156 3.746-0.137 0.082-0.416 0.165-0.793 0.249-2.668 0.641-10.834 1.497-22.293 1.497-0.668 0-1.357 0-2.050-0.023h-24.467l-9.202-43.754h1.743c0.649 0 1.299 0 1.941 0zM256.069 480.001c-141.369 0-255.991-114.615-255.991-256.004 0-141.377 114.622-255.996 255.991-255.996 141.392 0 256.009 114.618 256.009 255.996 0 141.389-114.617 256.004-256.009 256.004zM180.608 363.214h97.891c16.74-0.024 30.464-1.911 41.629-6.395 11.145-4.485 20.366-12.301 26.755-22.639 6.539-10.439 9.685-22.865 9.656-36.375 0.010-12.445-2.427-24.629-7.223-36.318-4.684-11.438-10.603-21.044-18.044-28.555-7.012-7.074-14.772-12.627-23.217-16.454-8.554-3.857-19.117-6.428-31.943-8.229-8.239-1.138-21.657-1.595-41.467-1.604h-20.98l-15.955-76.283-1.667-7.932h-65.852l50.417 240.784zM386.956 223.84c-4.684-11.445-10.594-21.061-18.037-28.539-7.013-7.082-14.786-12.649-23.223-16.462-8.565-3.856-19.089-6.439-31.933-8.239-8.25-1.138-21.656-1.577-41.461-1.594h-20.986l-15.967-76.283-1.666-7.938h-65.842l3.719 17.721h40.65l3.339 15.817 1.659 7.929 12.655 60.466h4.783c21.982 0 35.184 0.55 44.188 1.789 15.457 2.167 27.312 5.296 37.367 9.784 10.586 4.785 20.391 11.712 29.225 20.612 9.022 9.099 16.545 20.901 22.344 35.029 5.785 14.1 8.724 28.901 8.697 43.905 0.012 3.1-0.166 6.142-0.426 9.139 3.168-3.136 6.095-6.538 8.502-10.425 6.543-10.463 9.671-22.873 9.627-36.393 0.018-12.424-2.421-24.623-7.214-36.318z" />
<glyph unicode="&#xe621;" d="M255.927 480.002c-141.384 0-256.005-114.601-256.005-256.006 0-104.817 63.028-194.87 153.221-234.465-0.71 17.889-0.122 39.333 4.466 58.773 4.914 20.793 32.934 139.499 32.934 139.499s-8.181 16.345-8.181 40.507c0 37.93 21.99 66.257 49.372 66.257 23.29 0 34.528-17.484 34.528-38.417 0-23.412-14.934-58.417-22.609-90.833-6.407-27.168 13.625-49.321 40.417-49.321 48.498 0 81.17 62.287 81.17 136.105 0 56.103-37.787 98.104-106.519 98.104-77.657 0-126.034-57.899-126.034-122.592 0-22.304 6.578-38.021 16.883-50.216 4.732-5.572 5.401-7.834 3.686-14.244-1.229-4.707-4.050-16.069-5.208-20.557-1.706-6.498-6.964-8.813-12.822-6.416-35.765 14.597-52.426 53.77-52.426 97.811 0 72.714 61.331 159.914 182.958 159.914 97.727 0 162.055-70.733 162.055-146.654 0-100.409-55.808-175.438-138.105-175.438-27.646 0-53.647 14.945-62.55 31.89 0 0-14.862-58.986-18.001-70.357-5.431-19.756-16.061-39.474-25.777-54.844 23.025-6.789 47.341-10.499 72.559-10.499 141.364 0 255.984 114.604 255.984 255.989-0.009 141.409-114.643 256.010-255.996 256.010z" />
<glyph unicode="&#xe622;" d="M256 480c-141.385 0-256-114.616-256-256 0-141.385 114.615-256 256-256 141.385 0 256 114.615 256 256 0 141.384-114.615 256-256 256zM199.453 133.25l-0.009-0.502c-2.917-0.044-5.826-0.243-8.734-0.384l0.279-0.616c-3.439-0.105-6.903 0.019-10.296-0.562-5.784-0.184-11.633-0.521-17.38 0.261-3.369 0.173-6.737 0.274-10.106 0.373l0.156 0.625c-2.561 0.128-5.113 0.267-7.673 0.357-0.287 1.040-0.982 2.368-1.596 0.787-0.694 0.020-2.077 0.045-2.761 0.054l-0.408 0.382c-1.528 0.184-3.057 0.356-4.516 0.851-1.494 0.269-3.003 0.442-4.427 0.962-1.103 0.226-2.214 0.427-3.324 0.609-1.165 0.391-2.333 0.772-3.481 1.189-1.033 0.116-2.068 0.225-3.101 0.32l0.078 0.513c-2.821 0.573-5.538 1.545-8.256 2.481-1.477 0.442-2.935 0.947-4.409 1.425-0.87 0.453-1.729 0.921-2.58 1.398-0.242 0.008-0.712 0.025-0.946 0.033-0.442 0.27-1.337 0.825-1.789 1.104-1.477 0.807-2.943 1.649-4.383 2.519-1.458 1.222-2.882 2.49-4.306 3.757-0.921 1.166-1.841 2.337-2.745 3.508-1.71 3.871-1.736 8.516-0.137 12.424 1.943 2.491 4.191 4.732 6.831 6.493 1.494 0.946 3.013 1.842 4.583 2.64l-0.016 0.694c0.389-0.050 1.162-0.157 1.554-0.2l0.146 0.703c1.851 0.807 3.646 1.701 5.445 2.623 1.449 0.616 2.875 1.265 4.288 1.944 0.946 0.382 1.894 0.753 2.841 1.109 2.36 1.070 4.809 1.955 7.3 2.658l-0.061 0.583c0.599 0.033 1.806 0.111 2.405 0.148 0.92 0.483 1.858 0.961 2.805 1.421 0.375 0.098 1.138 0.278 1.521 0.375 0.875 0.32 1.761 0.625 2.647 0.921 2.761 1.058 5.572 1.987 8.344 3.021 0.928 0.304 1.849 0.617 2.769 0.928 1.424 0.53 2.849 1.061 4.228 1.693 0.503 0.104 1.509 0.31 2.015 0.407 2.733 1.205 5.591 2.101 8.386 3.159 2.335 0.792 4.679 1.599 6.937 2.615 0.468 0.078 1.414 0.234 1.883 0.31 1.424 0.651 2.864 1.243 4.323 1.799 1.034 0.285 2.075 0.553 3.126 0.814l-0.096 0.418c2.291 0.486 4.479 1.354 6.684 2.134 1.372 0.522 2.77 1 4.142 1.538 2.084 0.721 4.16 1.466 6.268 2.111 1.076 0.424 2.162 0.822 3.248 1.24 1.143 0.391 2.3 0.789 3.446 1.197 1.068 0.357 2.143 0.679 3.229 0.965l-0.096 0.687c0.677 0.009 2.023 0.024 2.7 0.034-0.050-10.593 0.104-21.19-0.104-31.785-1.936-0.47-3.837-1.094-5.644-1.944-0.493-0.088-1.466-0.262-1.952-0.347-0.947-0.478-1.901-0.947-2.848-1.418-0.355-0.068-1.069-0.197-1.424-0.266-3.664-1.486-7.476-2.562-11.095-4.15-0.567-0.062-1.712-0.182-2.276-0.243v-0.53c-1.32-0.401-2.613-0.859-3.906-1.319-1.025-0.312-2.049-0.606-3.082-0.868l0.139-0.426c-1.015-0.25-2.015-0.521-3.013-0.814-1.363-0.47-2.716-0.923-4.097-1.317l0.069-0.567c-0.556-0.051-1.676-0.165-2.232-0.223-1.493-0.722-3.056-1.304-4.663-1.722l-0.041-0.424c-4.109-0.851-7.937-2.639-11.895-3.969-1.137-0.585-2.266-1.165-3.404-1.737-0.93-0.643-1.841-1.296-2.769-1.933-0.428-1.307-0.834-2.616-1.166-3.954l0.784 0.055c0.294-0.312 0.884-0.946 1.171-1.262l-0.105-0.39c1.033-0.418 2.057-0.862 3.082-1.312 1.311-0.349 2.646-0.591 3.994-0.825l-0.236-0.493c6.443-0.433 12.911-0.323 19.36 0.007l-0.224 0.616c3.785-0.059 7.396 1.158 10.869 2.537 0.486 0.097 1.451 0.297 1.936 0.392 1.041 0.478 2.092 0.947 3.143 1.399 1.292 0.406 2.57 0.851 3.872 1.25 1.095 0.452 2.206 0.878 3.315 1.309 1.191 0.401 2.379 0.81 3.579 1.19 1.902 0.704 3.794 1.433 5.634 2.291 0.417 0.011 1.25 0.026 1.667 0.034l-0.025 0.851c1.19 0.114 2.386 0.218 3.576 0.342 0.017-9.334-0.050-18.678 0.053-28.010-2.323-0.486-4.658-0.886-7.017-1.075zM277.854 318.421c-0.45-0.295-1.336-0.894-1.787-1.19-2.996-3.030-4.255-7.275-3.932-11.477-0.062-62.771-0.011-125.536-0.024-188.306 0.052-5.393-0.181-10.799 0.304-16.166-0.563-0.043-1.701-0.115-2.274-0.146 0.514 0.389 1.016 0.807 1.502 1.232-2.656-0.627-5.114 0.624-7.554 1.458-2.326 0.744-4.643 1.546-7.006 2.163-1.146 0.422-2.283 0.831-3.411 1.271-0.563 0.054-1.685 0.168-2.239 0.217l0.042 0.531c-2.084 0.399-4.089 1.086-6.086 1.754-1.745 0.565-3.506 1.094-5.303 1.432l0.085 0.504c-0.563 0.052-1.701 0.175-2.267 0.234-1.102 0.479-2.204 0.912-3.315 1.347-0.895 0.226-1.771 0.466-2.648 0.721-1.154 0.373-2.302 0.72-3.438 1.111-2.621 0.841-5.243 1.632-7.841 2.516-1.292 0.374-2.561 0.766-3.828 1.165 0.017 80.768 0.079 161.533-0.025 242.288 1.604-0.13 3.239-0.262 4.733-0.919 1.112-0.122 2.229-0.251 3.351-0.374 2.586-0.92 5.312-1.311 7.935-2.136 1.154-0.146 2.319-0.294 3.482-0.459 1.126-0.425 2.264-0.833 3.42-1.216 2.178-0.511 4.348-1.102 6.589-1.362l-0.078-0.382c3.308-0.556 6.502-1.614 9.714-2.569 3.003-0.772 6.058-1.458 8.916-2.7 1.007-0.104 2.024-0.208 3.039-0.303l-0.044-0.697c0.625-0.068 1.884-0.215 2.516-0.294 1.069-0.417 2.163-0.807 3.257-1.215 2.058-0.495 4.071-1.164 6.096-1.813 2.316-0.765 4.625-1.581 6.996-2.198 1.649-0.573 3.324-1.102 5.002-1.624 1.188-0.442 2.405-0.859 3.602-1.318 0.841-0.296 1.685-0.591 2.526-0.903 1.18-0.425 2.362-0.859 3.549-1.276 1.096-0.478 2.198-0.946 3.3-1.424 0.938-0.349 1.866-0.721 2.796-1.077 1.415-0.66 2.831-1.311 4.256-1.936 1.489-0.79 2.978-1.589 4.436-2.438 0.199 0.017 0.607 0.043 0.807 0.050 1.91-1.389 3.977-2.535 6.043-3.682 1.041-0.693 2.084-1.397 3.116-2.109 4.177-2.535 7.592-6.042 11.226-9.254-0.023-0.209-0.076-0.608-0.105-0.808l0.574 0.374c2.389-2.977 4.795-5.947 6.851-9.176 0.546-1.033 1.091-2.074 1.632-3.125l0.321 0.129c0.32-0.999 0.667-1.988 1.041-2.97 0.53-1.137 1.052-2.265 1.588-3.403 1.086-3.672 2.537-7.259 3.013-11.078 0.141-0.018 0.428-0.043 0.573-0.060 0.095-2.024 0.211-4.055 0.271-6.086l0.6 0.077c0.519-9.376 1.735-18.831 0.456-28.189-0.155-1.936-0.266-3.881-0.362-5.826l-0.572 0.183c-0.121-1.624-0.254-3.248-0.417-4.881-0.679-1.656-1.206-3.383-1.702-5.113-0.451-1.189-0.858-2.396-1.293-3.595-0.599-1.188-1.242-2.361-1.928-3.507l-0.077-0.649c-0.312-0.53-0.956-1.571-1.276-2.092l-0.201-0.156c-0.693-1.069-1.432-2.119-2.152-3.169-0.253-0.296-0.746-0.895-0.997-1.19l-0.279 0.021c-0.217-0.324-0.649-0.958-0.88-1.27-1.039-0.999-2.088-1.987-3.149-2.968-1.234-0.808-2.456-1.634-3.682-2.431-0.435-0.285-1.304-0.869-1.736-1.157-0.217-0.017-0.66-0.041-0.879-0.061-7.414-4.063-16.227-2.761-24.291-2.302-3.143 1.068-6.373 1.838-9.446 3.109-1.085 0.389-2.17 0.797-3.239 1.178l-0.024 0.844c-0.399-0.105-1.198-0.323-1.589-0.434l0.042 1.155-0.806-0.062c0.13 21.574 0.023 43.139 0.061 64.713-0.044 8.543 0.141 17.086-0.277 25.629-0.14-0.009-0.433-0.009-0.582-0.009-0.526 7.051-7.592 12.746-14.618 11.324zM426.225 164.406c-0.444-0.677-0.879-1.361-1.311-2.047-0.243-0.279-0.729-0.836-0.974-1.12l-0.242-0.019c-0.235-0.297-0.705-0.885-0.938-1.18-4.071-3.664-8.813-6.44-13.675-8.907-2.343-1.12-4.689-2.214-7.135-3.073-0.86-0.304-1.728-0.607-2.586-0.902-5.984-2.316-12.094-4.307-18.094-6.554-1.444-0.512-2.875-1.018-4.324-1.502-0.879-0.338-1.743-0.701-2.612-1.073-0.496-0.13-1.486-0.384-1.981-0.514-1.379-0.583-2.777-1.094-4.181-1.587-0.923-0.321-1.842-0.637-2.752-0.949-2.796-1.084-5.625-2.047-8.43-3.096-1.199-0.393-2.38-0.821-3.561-1.234-1.129-0.424-2.257-0.843-3.368-1.285-0.9-0.295-1.796-0.593-2.689-0.904-1.451-0.521-2.882-1.067-4.272-1.728-0.488-0.076-1.449-0.241-1.927-0.326-1.406-0.63-2.824-1.211-4.258-1.766-1.023-0.319-2.057-0.625-3.089-0.911l0.042-0.372c-5.119-1.279-9.957-3.465-14.957-5.116-0.937-0.321-1.858-0.66-2.771-1.015-2.063-0.68-4.096-1.468-6.146-2.18-2.325-0.87-4.661-1.712-6.997-2.545-0.896-0.313-1.781-0.625-2.673-0.923-1.937-0.702-3.872-1.396-5.791-2.126-4.158-1.337-8.126-3.352-12.458-4.078 0.089 10.253-0.017 20.507 0.054 30.748 0.797 1.597 2.986 1.554 4.426 2.355 2.085 0.642 4.116 1.412 6.184 2.126 1.806 0.65 3.62 1.294 5.443 1.919 1.519 0.571 3.049 1.119 4.62 1.548l-0.078 0.605c1.137 0.097 2.283 0.174 3.438 0.254l-0.010 0.574c2.195 0.658 4.349 1.475 6.532 2.213 1.438 0.539 2.88 1.051 4.338 1.555 0.868 0.348 1.737 0.676 2.624 0.998 0.892 0.302 1.793 0.597 2.697 0.868 1.388 0.562 2.787 1.094 4.213 1.589 3.715 1.259 7.413 2.587 11.096 3.969 0.927 0.328 1.847 0.658 2.777 0.996 0.311 0.063 0.938 0.175 1.25 0.236 0.99 0.469 1.989 0.955 2.979 1.431 0.484 0.089 1.44 0.243 1.918 0.321 4.054 1.701 8.238 3.056 12.381 4.531 0.676 0.201 2.023 0.602 2.69 0.801l-0.055 0.416c1.041 0.241 2.075 0.502 3.11 0.788 2.161 0.853 4.341 1.658 6.582 2.274l-0.028 0.339c1.497 0.34 2.834 1.076 4.101 1.911l0.737-0.070c0.245 0.337 0.739 1.033 0.983 1.381 0.31 0.172 0.953 0.512 1.273 0.685 1.232 2.37 0.217 4.69-2.066 5.835-0.965 0.357-1.911 0.736-2.857 1.109-1.806 0.807-3.802 0.721-5.729 0.807l0.138 0.566c-4.454-0.044-9.023 0.65-13.369-0.547-1.753-0.099-3.508-0.185-5.244-0.313-2.327-0.782-4.723-1.261-7.050-1.988-2.346-0.797-4.673-1.625-7.005-2.405-1.157-0.442-2.295-0.895-3.413-1.406-0.434-0.061-1.318-0.18-1.762-0.251-1.44-0.647-2.899-1.239-4.393-1.753-2.363-0.867-4.733-1.754-7.238-2.057-0.013-0.203-0.029-0.617-0.047-0.817-1.326-0.287-2.646-0.592-3.949-0.991-0.834-0.304-1.658-0.625-2.476-0.946-1.5-0.509-2.985-1.041-4.47-1.579-1.131-0.365-2.24-0.747-3.345-1.171-2.353-0.815-4.721-1.596-7.023-2.552-0.425-0.086-1.275-0.278-1.7-0.364-1.466-0.642-2.953-1.24-4.464-1.771-0.875-0.279-1.76-0.555-2.639-0.818-1.979-0.875-4.035-1.571-6.165-1.95 0.010 9.835 0.071 19.68-0.018 29.516-0.090 1.294 0.21 2.535 0.636 3.739 1.961 0.256 3.842 0.879 5.649 1.668 0.598 0.115 1.815 0.33 2.413 0.443 3.136 1.198 6.406 1.997 9.69 2.684 1.404 0.477 2.881 0.702 4.368 0.885 1.413 0.394 2.837 0.745 4.252 1.179 1.633 0.14 3.281 0.271 4.932 0.384l-0.113 0.616c2.604 0.13 5.215 0.295 7.831 0.372l-0.199 0.602c5.010 0.501 10.027 1.119 15.072 1.031l-0.146 0.593c4.533-0.175 9.071 0.119 13.602-0.133 4.004-0.66 8.075-0.582 12.114-0.936 1.676-0.305 3.367-0.408 5.069-0.529l-0.26-0.581c2.44-0.088 4.878-0.203 7.315-0.393 3.125-1.006 6.478-1.060 9.575-2.205 1.277-0.17 2.562-0.33 3.848-0.486l-0.053-0.53c3.022-0.224 5.834-1.44 8.76-2.135l-0.018-0.33c3.704-0.72 7.146-2.378 10.747-3.499 0.974-0.435 1.952-0.885 2.941-1.345 1.138-0.487 2.284-0.981 3.413-1.536 0.277 0.032 0.851 0.111 1.126 0.149l0.114-1.166c0.312 0.023 0.955 0.086 1.276 0.112 1.779-1.346 3.63-2.604 5.311-4.089 0.253-0.025 0.766-0.077 1.017-0.104l0.009-1.025 0.662-0.033c0.51-0.694 1.039-1.389 1.571-2.085 0.361-0.397 1.082-1.206 1.449-1.611 0.010-0.216 0.019-0.661 0.019-0.886 0.511-0.781 1.024-1.577 1.539-2.38 0.138-3.043 0.191-6.195-1.372-8.923z" />
<glyph unicode="&#xe623;" d="M163.402 130.914l-0.017 0.009c0.017 0 0.017 0 0.017-0.009zM106.035 227.213c6.717 14.417 17.207 26.649 29.189 36.827-3.918 1.785-7.963 3.056-11.963 3.040-0.672 0-1.347-0.036-2.020-0.107h-0.094l-0.094-0.012c-5.75-0.155-11.55-2.62-15.895-6.55-4.358-3.926-7.237-9.224-7.457-15.064l-0.006-0.054-0.008-0.050c-0.031-0.47-0.056-0.938-0.056-1.392 0-3.602 1.13-7.088 3.039-10.251 1.419-2.362 3.272-4.521 5.365-6.387zM377.975 229.664c-15.252 20.831-38.939 34.412-63.566 41.988l-0.173 0.051c-4.729 1.425-9.496 2.683-14.324 3.759-14.39 3.215-29.14 4.816-43.896 4.816-19.793 0-39.586-2.874-58.542-8.601-24.627-7.667-48.383-21.158-63.616-42.056v0l-0.004-0.013c-7.712-10.432-12.237-23.389-12.237-36.288 0-4.742 0.608-9.489 1.896-14.118v0l0.002-0.002c2.777-10.369 8.192-19.631 15.211-27.691 7.014-8.079 15.625-14.976 24.675-20.596 2-1.215 4.020-2.382 6.071-3.519 26.294-14.386 56.57-20.699 86.616-20.699 5.099 0 10.192 0.179 15.25 0.538 30.278 2.45 60.663 11.215 85.218 29.119l0.019 0.018c7.827 5.669 15.062 12.533 20.798 20.342 5.741 7.799 9.961 16.535 11.837 26.015v0.031l0.014 0.006c0.774 3.546 1.143 7.138 1.143 10.742-0.003 12.853-4.732 25.764-12.392 36.158v0zM180.898 199.215c-2.785 3.854-4.406 8.523-4.406 13.325 0 2.193 0.345 4.404 1.062 6.552v0c0 0 0.011 0.008 0.011 0.023v0.008c2.537 7.833 9.399 13.525 17.22 15.13v0c0.012 0 0.023 0 0.023 0 0.025 0 0.045 0.009 0.067 0.009v0c1.569 0.36 3.176 0.542 4.761 0.542 5.905 0 11.616-2.374 15.912-6.265 4.288-3.874 7.204-9.37 7.204-15.548 0-0.318-0.006-0.621-0.021-0.905 0.008-0.181 0.008-0.349 0.008-0.515 0-6.229-2.958-11.702-7.279-15.562-4.334-3.864-10.056-6.223-15.946-6.223-2.358 0-4.742 0.406-7.056 1.242v0c-0.041 0.017-0.071 0.022-0.108 0.022-0.031 0.019-0.048 0.022-0.079 0.022v0c-4.697 1.394-8.613 4.366-11.373 8.143zM324.673 150.463l-0.012-0.008c-0.524-1.929-1.494-3.555-2.666-4.875-1.179-1.325-2.562-2.35-3.989-3.233-2.843-1.734-5.878-2.921-8.16-4.239l-0.081-0.045-0.097-0.058c-17.312-7.979-36.727-12.361-56.041-12.361-21.412-0.022-42.749 5.41-60.873 17.39v0c-1.842 0.979-3.253 2.434-4.169 4.096-0.969 1.763-1.427 3.697-1.427 5.631 0 2.146 0.562 4.296 1.723 6.144 1.114 1.803 2.839 3.312 5.051 4.14h-0.006c0.069 0.026 0.142 0.056 0.209 0.086v0 0c1.413 0.625 2.839 0.933 4.198 0.933 1.641 0 3.169-0.407 4.557-0.991 1.39-0.562 2.65-1.328 3.858-2.094 2.377-1.547 4.556-3.176 6.466-3.939l0.069-0.029 0.059-0.023c12.675-6.107 26.666-9.022 40.748-9.022 18.758 0 37.66 5.153 53.731 14.558h0.007c1.689 1.104 3.598 1.625 5.433 1.625 2.28 0 4.446-0.725 6.298-1.91 1.847-1.177 3.413-2.837 4.396-4.85 0.653-1.344 1.043-2.835 1.043-4.409-0.003-0.834-0.107-1.663-0.325-2.517zM330.873 199.054c-2.843-3.81-6.866-6.766-11.599-8.067h0.007c-0.037-0.016-0.071-0.016-0.101-0.024-0.021 0-0.042-0.017-0.066-0.017v0c-2.211-0.75-4.486-1.096-6.746-1.096-5.29 0-10.478 1.867-14.627 5.055-4.121 3.171-7.24 7.734-8.224 13.142h-0.004c0 0.021 0 0.030-0.008 0.056-0.008 0.021-0.008 0.024-0.013 0.059h0.005c-0.305 1.389-0.454 2.784-0.454 4.16 0 4.682 1.621 9.182 4.31 12.896 2.672 3.692 6.439 6.624 10.86 8.133v0c0.005 0 0.022 0 0.027 0.011 0.021 0 0.022 0.015 0.045 0.015v0c2.501 0.918 5.129 1.356 7.74 1.356 4.736 0 9.43-1.406 13.373-3.986 3.896-2.545 7.060-6.268 8.652-10.904v0c0.009-0.023 0.017-0.053 0.024-0.078 0.006-0.029 0.014-0.051 0.022-0.076h-0.005c0.933-2.352 1.364-4.78 1.364-7.199 0.006-4.86-1.701-9.588-4.582-13.436zM411.892 253.811l-0.020 0.048c-2.13 4.299-5.48 7.55-9.516 9.768-4.035 2.228-8.759 3.364-13.493 3.364-4.266 0-8.525-0.943-12.316-2.802 12.028-10.238 22.571-22.543 29.387-37.014 2.197 1.867 4.064 4.162 5.454 6.707 1.833 3.333 2.865 7.076 2.865 10.768-0.006 3.124-0.737 6.229-2.329 9.123l-0.032 0.038zM355.993 352.888c-2.857-3.372-4.58-7.533-4.58-11.867 0-0.386 0.013-0.791 0.042-1.187l0.002-0.027v-0.045c0.194-4.99 2.591-9.63 6.252-13.068 3.66-3.429 8.527-5.556 13.477-5.576h0.125c0.354-0.025 0.712-0.025 1.063-0.025 4.986-0.012 9.934 2.104 13.655 5.52 3.727 3.437 6.179 8.107 6.377 13.139l0.011 0.031v0.025c0.025 0.386 0.039 0.756 0.039 1.141 0.009 5.18-2.46 10.12-6.33 13.773-3.854 3.649-9.039 5.916-14.154 5.91-1.636 0-3.274-0.223-4.879-0.712l-0.053-0.006-0.046-0.020c-4.215-1.080-8.161-3.625-11.001-7.006zM255.922 479.999c-141.389 0-256-114.628-256-256.014 0-141.382 114.611-255.986 256-255.986 141.387 0 256 114.604 256 255.986 0.001 141.386-114.612 256.014-256 256.014zM430.19 220.601c-4.407-6.61-10.488-12.153-17.503-15.904 0.454-3.438 0.703-6.92 0.703-10.384-0.006-18.646-6.557-36.982-17.984-51.679v0-0.010h-0.013c-21.12-27.548-53.532-43.787-86.271-51.976h-0.017l-0.010-0.023c-17.459-4.155-35.468-6.28-53.466-6.28-26.818 0-53.631 4.745-78.646 14.59l-0.002 0.016h-0.023c-25.937 10.488-50.648 27.148-65.795 51.566v0 0 0c-8.155 13.022-12.63 28.302-12.63 43.664 0 3.475 0.24 6.946 0.71 10.395-6.822 3.767-12.737 9.106-17.127 15.498-4.686 6.853-7.649 14.879-8.030 23.366v0.135c0.005 11.886 5.276 23.146 13.452 31.448 8.187 8.299 19.355 13.731 31.343 13.731 0.167 0 0.339 0 0.505 0 1.254 0.076 2.525 0.125 3.791 0.125 6.025 0 12.059-0.958 17.788-3.112l0.036-0.018 0.031-0.011c4.89-2.021 9.754-4.46 14.087-7.831 1.404 0.717 2.935 1.532 4.658 2.175 26.263 15.249 56.79 21.132 86.541 22.83 0.269 14.459 2.066 29.591 9.251 42.827 5.989 11.003 16.396 19.572 28.756 22.54l0.056 0.013 0.056 0.018c4.718 0.889 9.471 1.303 14.183 1.303 12.578 0 25.003-2.919 36.626-7.468 5.14 7.607 12.486 13.549 21.104 16.885l0.079 0.048 0.073 0.025c5.062 1.547 10.404 2.455 15.782 2.455 5.656 0 11.354-1.017 16.687-3.356v0.017c0.016-0.017 0.025-0.017 0.025-0.017 0.035-0.008 0.071-0.037 0.099-0.037v0c7.667-2.896 14.146-8.243 18.731-14.88 4.61-6.671 7.322-14.668 7.322-22.887 0-1.512-0.101-3.031-0.286-4.553v0c0-0.008-0.006-0.025-0.006-0.025 0-0.030 0-0.057-0.007-0.087v0c-0.899-10.613-6.391-19.934-14.158-26.579-7.81-6.672-17.934-10.706-28.313-10.706-1.667 0-3.351 0.087-5.026 0.311v0c-10.289 0.777-19.896 5.655-26.959 12.929-7.066 7.261-11.634 16.963-11.634 27.428 0 0.505 0.040 1.021 0.070 1.532-9.687 4.217-19.945 7.717-30.151 7.712-1.477 0-2.949-0.076-4.429-0.223v0h-0.017c-7.639-0.718-14.731-5.447-18.178-12.237v-0.025c-5.221-9.976-6.266-21.644-6.418-33.227 29.271-1.87 58.734-8.762 84.587-23.333h0.034l0.368-0.209c0.49-0.288 1.391-0.776 2.214-1.198 1.784 1.407 3.658 2.864 5.79 4.119v0c7.844 5.113 17.129 7.655 26.405 7.655 4.119 0 8.254-0.518 12.255-1.52h0.008l0.172-0.048c0.056-0.006 0.101-0.025 0.147-0.025v-0.012c9.452-2.358 18.011-7.682 24.448-14.861 6.435-7.191 10.763-16.291 11.617-26.169v-0.053c0.046-0.786 0.062-1.556 0.062-2.333 0.005-8.661-2.825-16.993-7.553-24.060z" />
<glyph unicode="&#xe624;" d="M255.922 480c-141.384 0-256-114.618-256-256 0-141.381 114.616-256 256-256 141.381 0 256 114.619 256 256 0.001 141.382-114.619 256-256 256zM224.014 84.003c-37.204 2.718-80.234 31.628-80.234 61.464 0 9.79 0.297 28.868 24.765 37.271 14.361 4.947 47.134-4.456 39.374-46.229-1.448-7.788 70.419-19.391 77.875 17.894 7.765 38.886-74.588 57.591-74.588 57.591-4.422 1.489-57.282 12.737-57.282 72.649 0 78.626 88.862 82.167 111.991 79.313 68.987-8.498 96.971-82 45.202-93.425-29.664-6.55-44.94 21.183-38.244 42.521 2.422 7.688-24.374 9.926-37.635 5.802-11.998-3.718-26.676-16.757-26.676-31.753 0-19.317 45.905-34.231 45.905-34.231s36.563-13.548 46.369-19.973c7.687-5.031 37.876-24.194 40.511-60.255-9.288-1.73-17.601-6.361-23.938-12.955-8.128-8.425-13.121-20.078-13.111-32.834-0.008-8.291 2.124-16.070 5.816-22.84-20.882-15.415-51.068-22.573-86.1-20.010zM349.357 92.292c-18.171 0-32.89 15.289-32.89 34.149 0 18.882 14.719 34.168 32.89 34.168 18.167 0 32.891-15.289 32.891-34.168 0.001-18.86-14.724-34.149-32.891-34.149z" />
<glyph unicode="&#xe625;" d="M255.933 480c-141.398 0-256.011-114.604-256.011-255.99 0-141.386 114.613-256.010 256.011-256.010 141.366 0 255.989 114.624 255.989 256.010 0 141.386-114.634 255.99-255.989 255.99zM84.382 189.257c-0.121-0.81-0.711-1.38-1.441-1.38-0.742 0-1.331 0.57-1.432 1.38l-2.619 19.597 2.619 19.919c0.102 0.833 0.69 1.422 1.432 1.422 0.73 0 1.32-0.589 1.441-1.422l3.106-19.919-3.106-19.597zM97.693 177.328c-0.121-0.854-0.73-1.441-1.492-1.441-0.761 0-1.381 0.609-1.501 1.463l-3.524 31.491 3.524 32.226c0.112 0.833 0.741 1.453 1.501 1.453 0.762 0 1.372-0.6 1.492-1.453l4.010-32.226-4.010-31.513zM112.099 171.998c-0.112-0.994-0.862-1.747-1.808-1.747-0.944 0-1.705 0.753-1.795 1.767l-3.341 36.834 3.341 38.215c0.091 1.047 0.853 1.787 1.795 1.787 0.935 0 1.696-0.74 1.808-1.787l3.796-38.215-3.796-36.854zM126.608 170.852c-0.102-1.188-1.004-2.061-2.102-2.061-1.106 0-2.021 0.872-2.111 2.061l-3.157 37.98 3.168 39.27c0.091 1.188 0.995 2.081 2.11 2.081 1.097 0 1.991-0.894 2.102-2.061l3.584-39.29-3.594-37.98zM141.237 170.536c-0.091-1.37-1.126-2.388-2.405-2.388-1.299 0-2.334 1.018-2.405 2.388l-2.985 38.296 2.985 36.43c0.082 1.36 1.107 2.396 2.405 2.396 1.279 0 2.325-1.025 2.405-2.366l3.392-36.468-3.392-38.288zM155.99 170.516v0.021c-0.082-1.523-1.279-2.71-2.712-2.71-1.452 0-2.64 1.178-2.721 2.69l-2.802 38.314 2.802 59.271c0.082 1.501 1.27 2.68 2.721 2.68 1.432 0 2.629-1.179 2.712-2.68l3.177-59.271-3.177-38.315zM170.842 170.739v0.021c-0.081-1.686-1.4-2.984-3.025-2.984s-2.954 1.302-3.025 2.967l-2.619 38.070 2.619 72.835c0.071 1.686 1.4 2.985 3.025 2.985s2.944-1.299 3.025-2.985l2.964-72.835-2.964-38.074zM185.828 171.125v0.021c-0.081-1.852-1.543-3.291-3.33-3.291-1.807 0-3.26 1.453-3.33 3.271l-2.438 37.687 2.438 78.906c0.071 1.848 1.522 3.31 3.33 3.31 1.787 0 3.249-1.472 3.33-3.31l2.752-78.906-2.752-37.688zM200.926 171.389v-0.021c-0.092-2.031-1.667-3.604-3.646-3.604-1.969 0-3.574 1.584-3.635 3.574l-2.254 37.473 2.254 81.567c0.062 2.030 1.667 3.603 3.635 3.603 1.979 0 3.573-1.563 3.646-3.603l2.538-81.567-2.538-37.442c0-0.001 0-0.001 0 0.020zM216.134 171.705v0.020c-0.061-2.191-1.786-3.938-3.939-3.938-2.163 0-3.898 1.745-3.939 3.92l-2.081 37.096 2.081 79.476c0.041 2.193 1.776 3.919 3.939 3.919 2.152 0 3.877-1.696 3.939-3.919l2.335-79.476-2.335-37.098zM231.454 171.938v0.041c-0.061-2.388-1.929-4.244-4.243-4.244-2.334 0-4.193 1.869-4.255 4.203l-1.898 36.854 1.898 76.592c0.062 2.376 1.929 4.214 4.255 4.214 2.324 0 4.182-1.848 4.243-4.193l2.124-76.612-2.124-36.855zM246.897 172.169v0.021c-0.041-2.485-2.092-4.547-4.558-4.547-2.467 0-4.507 2.051-4.548 4.525 0 0-1.727 36.583-1.727 36.633l1.727 91.11c0.040 2.499 2.062 4.539 4.548 4.539 2.457 0 4.519-2.042 4.558-4.539l1.918-91.128-1.918-36.614zM262.258 172.689v0.039c-0.041-2.66-2.214-4.84-4.854-4.84-2.638 0-4.832 2.18-4.862 4.821l-1.99 36.081 1.99 99.376c0.030 2.669 2.225 4.863 4.862 4.863 2.641 0 4.813-2.193 4.854-4.854l2.172-99.383-2.172-36.103zM393.502 167.57c-0.783 0-122.197 0.041-122.31 0.062-2.64 0.255-4.731 2.519-4.772 5.22v140.035c0.040 2.579 0.913 3.898 4.255 5.198 8.558 3.31 18.264 5.28 28.232 5.28 40.672 0 74.013-31.198 77.526-70.956 5.248 2.191 11.025 3.401 17.067 3.401 24.375 0 44.135-19.727 44.135-44.117 0.001-24.377-19.757-44.123-44.133-44.123z" />
<glyph unicode="&#xe626;" d="M341.168 209.446c-29.021-4.38-51.647-40.171-46.809-72.307 4.839-32.134 28.885-53.363 57.918-48.977 29.031 4.375 55.093 38.879 50.251 71.004-4.853 32.158-32.318 54.655-61.36 50.28zM363.169 122.951c-11.028-1.671-21.616 7.898-23.645 21.354-2.024 13.464 5.265 25.702 16.304 27.366 11.030 1.67 23.624-6.88 25.652-20.338 2.032-13.454-7.275-26.713-18.311-28.382zM509.027 262.164c-21.058 139.785-151.463 236.010-291.253 214.942-139.774-21.065-236.025-151.47-214.958-291.251 21.058-139.795 151.462-236.021 291.256-214.963 139.789 21.077 236.032 151.469 214.955 291.272zM348.447 75.589c-34.941-5.309-58.943 22.446-70.619 52.092-3.512 8.933-6.558 33.189-20.183 29.37-24.309-6.862-50.288-14.001-75.81-13.428-18.969 0.473-33.694 10.162-38.944 28.778-5.5 19.438-6.875 41.077-6.193 61.229 0.245 7.232 2.573 12.202-3.344 17.915-4.917 4.771-11.062 8.408-17.141 11.482 10.552 1.593 24.104-3.943 31.11-11.79 5.562-6.27 6.463-16.327 7.86-24.179 2.115-11.8 3.032-45.854 17.1-50.802 13.338-4.678 32.777 3.112 45.418 7.039 9.704 3.012 21.954 5.546 30.777 10.812-5.131-3.043-16.985 3.465-21.438 5.484-11.958 5.426-24.104 12.399-33.908 21.223-17.813 16.036-26.641 41.141-36.37 62.384-8.5 18.534-16.984 27.967-38.563 25.839-2.156-0.214-30.772-5.745-30.589-6.801-0.562 3.445 20.469 11.868 23.542 13.071 8.229 3.126 16.996 4.949 25.818 4.531 14.292-0.681 23.667-4.974 30.955-17.831 8.068-14.215 11.021-34.037 21.833-46.406 9.385-10.744 28.798-13.954 41.986-16.691 7.412-1.545 14.917-2.866 22.454-3.496 5.313-0.479 5.63-0.593 4.406 4.902-2.177 9.739-1.834 23.158-8.36 31.057-5.698 6.904-13.955 13.075-22.214 16.577-15.72 6.671-30.621 11.515-42.553 24.584-14.714 16.135-19.47 38.175-19.246 59.481 2.427-12.441 5.552-26.994 13.412-37.187 8.203-10.67 30.256-15.968 42.286-19.606 18.043-5.447 40.828-16.467 53.736-30.536 6.141-6.665 9.339-15.917 11.901-24.433 0.448-1.441 4.335-11.437 3.672-12.493 3.030 4.855 4.495 12.336 7.65 17.69 4.012 6.806 9 13.918 10.942 21.686 3.657 14.74-14.409 30.953-26.809 35.808-11 4.292-35.032 6.010-41.683 16.765-4.744 7.707-7.505 22.477-7.776 29.537 0.308-7.903 6.708-17.8 11.714-23.46 6.625-7.519 15.777-7.113 25.006-8.153 23.057-2.602 53.131-13.32 61.807-37.28 3.318-9.152 2.809-19.173 0.802-28.554-2.369-11.109-9.145-22.515-7.15-34.101 3.025-17.395 14.808-11.442 27.007-13.029 34.566-4.588 61.854-33.737 60.521-68.924-1.496-39.484-23.554-73.889-64.822-80.156z" />
<glyph unicode="&#xe627;" d="M386.574 94.19c-36.655 0-71.599 5.395-103.67 15.080l-120.16-60.669 46.336 93.774c-61.939 38.65-101.393 97.070-101.393 162.476 0 73.018 49.196 137.354 123.895 175.148-129.974-12.27-231.66-121.928-231.66-255.414 0-141.694 114.612-256.585 256.005-256.585 98.31 0 183.692 55.558 226.581 137.071-34.354-6.276-71.906-10.881-95.934-10.881zM387.877 444.488c-0.631-0.109-1.076-0.188-1.303-0.188-101.978 0-184.621-62.424-184.621-139.448 0-77.003 82.644-139.459 184.621-139.459 47.921 0 91.542 13.834 124.338 36.453 0.656 7.503 1.010 15.063 1.010 22.74 0 93.315-49.717 175.011-124.045 219.902z" />
<glyph unicode="&#xe628;" d="M333.62 124.489c-1.957-10.497-18-16.909-35.783-14.309-17.866 2.647-36.469 13.226-34.484 23.777 1.902 10.484 23.809 16.892 41.556 14.282 17.801-2.616 30.635-13.203 28.711-23.75zM357.656 251.423c-19.778 0-61.226-26.982-66.641-59.168 32.256 1.488 73.667 35.365 73.667 51.932 0.004 4.356-2.126 7.236-7.026 7.236zM512 224.001c0-141.389-114.619-256.001-256-256.001-141.385 0-256 114.617-256 256.001 0 141.381 114.615 255.999 256 255.999 141.381 0 256-114.614 256-255.999zM169.345 169.111c7.96 20.103 15.891 40.524 24.063 60.724 7.214 17.934 14.674 35.691 22.721 52.953 3.704 8.017 7.539 15.878 11.519 23.652 3.863 7.438 7.822 14.86 11.923 22.053 0 0 37.634 12.444 58.455-2.932 0 0 4.373 1.651 6.34 13.988 3.071 19.224-15.23 40.88-39.259 40.88-40.286 0-85.826-9.728-114.731-9.728-7.991 0.068-15.714 1.199-23.679 5.864-3.713-6.99-9.215-20.211-9.215-31.924 0-18.184 15.033-24.377 31.69-24.377 8.594 0 17.835 1.22 27.354 1.22-2.273-5.885-4.743-12.161-7.439-18.547-6.111-14.696-13.205-30.422-20.165-45.963-3.852-8.521-7.625-17.017-11.216-25.185-5.081-11.527-9.762-22.574-13.502-32.246-2.622-6.832-4.761-12.998-6.326-18.401-1.587-5.753-2.595-10.573-2.595-14.195 0-8.481 3.104-15.158 7.991-20.15 7.775-7.9 20.133-11.707 32.022-12.115 4.775 11.297 9.418 22.825 14.049 34.429zM424.651 254.308c0 26.386-18.845 47.875-49.625 47.875-14.93 0-50.85-9.88-64.821-19.444-16.155 12.734-29.897 16.511-47.522 16.511-1.478 0-3.062-0.582-3.062-2.014 0.304-4.049 0.552-7.549 0.552-11.004 0.092-33.304-72.406-172.548-72.406-190.793 0-27.245 26.495-39.118 49.009-39.118 0.905 8.127 8.542 27.514 11.863 27.514 19.762-16.51 40.885-23.437 60.298-23.437 34.541 0 64.597 21.457 75.612 49.231 0 0 3.777 8.327 4.5 22.934 0.759 15.885-6.355 32.746-21.62 47.816 28.908 13.678 57.222 40.626 57.222 73.929z" />
<glyph unicode="&#xe629;" d="M255.917 480c-141.372 0-255.995-114.615-255.995-256.004 0-141.392 114.623-255.996 255.995-255.996 141.398 0 256.004 114.604 256.004 255.996 0.001 141.39-114.606 256.004-256.004 256.004zM356.211 78.974c-13.64-6.404-26.001-10.917-37.084-13.538-11.092-2.551-23.060-3.862-35.908-3.862-14.609 0-23.235 1.835-34.452 5.511-11.229 3.715-20.797 8.994-28.73 15.767-7.927 6.848-13.41 14.118-16.486 21.801-3.059 7.678-4.597 18.842-4.597 33.467v112.065h-43.402v45.257c12.546 4.051 27.104 9.909 36.038 17.523 8.976 7.631 16.137 16.752 21.569 27.433 5.421 10.664 9.152 24.262 11.18 40.728h45.461v-73.908h73.877v-57.031h-73.877v-81.939c0-18.546-0.252-29.216 1.719-34.488 1.942-5.223 6.837-10.654 12.166-13.803 7.094-4.222 15.147-6.338 24.252-6.338 16.185 0 32.274 5.243 48.276 15.767v-50.411h-0.002z" />
<glyph unicode="&#xe62a;" d="M255.917 480c-141.383 0-255.995-114.614-255.995-256 0-141.388 114.611-256 255.995-256 141.401 0 256.004 114.612 256.004 256 0.001 141.386-114.603 256-256.004 256zM365.646 218.261c-23.578-95.613-181.771-136.173-254.544-36.91 27.873-26.618 76.41-28.961 107.201 2.87-18.051-2.645-31.185 15.083-9.010 24.654-19.946-2.188-31.033 8.431-35.58 17.449 4.676 4.895 9.832 7.17 19.81 7.832-21.837 5.161-29.898 15.848-32.373 28.816 6.062 1.453 13.645 2.692 17.791 2.134-19.133 10.011-25.779 25.062-24.722 36.378 34.174-12.697 55.943-22.899 74.15-32.675 6.489-3.463 13.729-9.696 21.894-17.614 10.396 27.5 23.243 55.852 45.236 69.912-0.359-3.192-2.072-6.156-4.333-8.587 6.25 5.671 14.348 9.583 22.587 10.713-0.942-6.192-9.85-9.676-15.229-11.702 4.073 1.265 25.729 10.931 28.078 5.421 2.797-6.254-14.933-9.144-17.947-10.223-2.25-0.756-4.502-1.589-6.724-2.485 27.445 2.729 53.632-19.921 61.276-48.033 0.548-2.026 1.094-4.265 1.585-6.625 10.034-3.746 28.217 0.183 34.075 3.786-4.239-10.025-15.244-17.416-31.481-18.76 7.822-3.255 22.565-5.042 32.747-3.312-6.445-6.915-16.83-13.186-34.487-13.039z" />
<glyph unicode="&#xe62b;" d="M255.917 480c-141.374 0-255.995-114.615-255.995-255.996 0-141.38 114.621-256.004 255.995-256.004 141.388 0 256.004 114.624 256.004 256.004 0.001 141.381-114.615 255.996-256.004 255.996zM394.833 282.182c-1.349-28.646-21.357-67.851-60.109-117.613-40.062-51.971-74.025-77.946-101.768-77.946-17.154 0-31.738 15.863-43.562 47.571-7.946 29.062-15.911 58.118-23.815 87.219-8.814 31.689-18.291 47.539-28.438 47.539-2.145 0-9.887-4.607-23.117-13.864l-13.871 17.821c14.557 12.77 28.87 25.547 43.001 38.329 19.368 16.718 33.878 25.543 43.562 26.429 22.898 2.202 36.976-13.437 42.308-46.91 5.68-36.133 9.658-58.577 11.876-67.392 6.623-29.943 13.87-44.928 21.84-44.928 6.128 0 15.37 9.685 27.73 29.078 12.314 19.368 18.92 34.123 19.795 44.264 1.77 16.748-4.848 25.099-19.795 25.099-7.092 0-14.36-1.546-21.831-4.613 14.521 47.128 42.256 70.021 83.243 68.688 30.414-0.86 44.724-20.473 42.951-58.771z" />
<glyph unicode="&#xe62c;" d="M255.933 480c-141.397 0-256.011-114.603-256.011-255.99 0-141.386 114.613-256.010 256.010-256.010 141.366 0 255.989 114.624 255.989 256.010 0.001 141.387-114.633 255.99-255.988 255.99zM221.261 102.351l-116.939 16.936v94.928h116.939v-111.864zM221.261 230.183h-116.939v94.937l116.939 16.945v-111.882zM394.142 77.306l-156.9 22.732v114.167h156.9v-136.899zM394.142 230.183h-156.9v114.208l156.9 22.712v-136.92z" />
<glyph unicode="&#xe62d;" d="M255.93 480c-141.221-0.042-255.966-114.79-256.008-255.998 0.042-141.212 114.788-255.97 256.008-256.002 141.209 0.032 255.951 114.79 255.992 256-0.040 141.208-114.797 255.958-255.992 256zM409.11 70.804c-39.329-39.294-93.397-63.556-153.18-63.57-59.793 0.015-113.88 24.276-153.194 63.57-39.296 39.327-63.557 93.401-63.568 153.196 0.011 59.792 24.271 113.867 63.568 153.184 39.314 39.297 93.401 63.559 153.194 63.569 59.783-0.008 113.851-24.272 153.18-63.569 39.293-39.314 63.561-93.39 63.567-153.184-0.006-59.795-24.274-113.869-63.567-153.196zM64.713 223.998c0-75.687 43.978-141.101 107.776-172.092l-91.225 249.914c-10.611-23.778-16.551-50.094-16.551-77.822zM259.282 207.273l-57.378-166.719c17.141-5.038 35.254-7.786 54.023-7.786 22.266 0 43.623 3.838 63.495 10.839-0.502 0.815-0.977 1.688-1.36 2.637l-58.78 161.029zM423.726 315.738c0.819-6.091 1.285-12.622 1.285-19.665 0-19.397-3.637-41.206-14.546-68.488l-58.405-168.87c56.853 33.148 95.085 94.737 95.085 165.284 0.001 33.244-8.499 64.508-23.419 91.739zM385.016 233.647c0 23.64-8.495 39.997-15.769 52.729-9.686 15.762-18.777 29.103-18.777 44.859 0 17.567 13.324 33.935 32.107 33.935 0.848 0 1.653-0.106 2.478-0.157-34.022 31.175-79.341 50.206-129.124 50.206-66.807 0-125.579-34.279-159.773-86.188 4.496-0.145 8.726-0.234 12.315-0.234 19.993 0 50.958 2.437 50.958 2.437 10.307 0.601 11.53-14.55 1.221-15.757 0 0-10.356-1.216-21.884-1.829l69.637-207.126 41.853 125.5-29.794 81.624c-10.297 0.613-20.055 1.829-20.055 1.829-10.307 0.607-9.104 16.358 1.213 15.757 0 0 31.561-2.437 50.358-2.437 20 0 50.964 2.437 50.964 2.437 10.31 0.601 11.525-14.55 1.219-15.757 0 0-10.369-1.215-21.883-1.829l69.102-205.551 19.078 63.729c9.705 24.857 14.556 45.456 14.556 61.823z" />
<glyph unicode="&#xe62e;" d="M474.316 358.488c-10.406 16.429-22.935 31.995-37.2 46.267l-0.438 0.432c-3.896 3.901-8.21 7.785-12.553 11.674-1.28-0.438-2.571-0.854-3.882-1.297-36.305-13.403-71.777-39.351-106.374-76.969l0.438-0.432c73.078-71.35 118.913-142.284 137.501-212.754 4.76-18.6 7.363-37.207 8.655-55.801 33.295 42.821 50.155 92.112 51.457 147.893v12.985c-1.298 47.138-13.826 89.953-37.604 128.002zM442.751 64.001c-1.302 3.88-3.029 7.775-4.334 11.675-0.427 0.422-0.427 1.293-0.427 1.719-26.816 64.873-76.984 127.141-150.948 187.243v0.438h-0.429c-9.933 8.228-19.89 16.013-30.68 23.788-10.821-7.774-20.778-15.56-30.286-23.788-79.141-63.565-131.025-130.583-156.114-200.646-0.864-1.729-1.739-3.896-2.156-6.062-0.438-1.724-1.302-3.444-1.729-5.192 3.020-3.462 6.479-6.914 9.499-9.951 48.439-48.871 106.395-73.947 174.299-75.224h12.968c67.88 1.276 125.829 26.356 174.268 75.224 3.041 3.037 6.487 6.489 9.518 9.951-0.438 1.748-1.293 3.469-1.73 5.192-0.44 2.165-1.304 3.893-1.719 5.633zM255.934 384.441c55.333 44.533 104.208 60.967 146.586 49.731-41.077 29.4-87.796 44.521-140.109 45.828h-12.966c-52.333-1.308-99.034-16.429-140.129-45.83 42.388 11.238 91.253-5.196 146.618-49.729zM197.976 338.596c-34.607 37.618-70.059 63.566-106.384 76.969-1.302 0.443-2.594 0.859-3.885 1.297-4.343-3.89-8.644-7.774-12.56-11.674v-0.432c-14.706-14.273-27.234-29.838-37.618-46.267-23.776-38.049-36.315-80.863-37.607-128v-12.987c1.291-56.223 18.578-105.509 52.312-148.335 0.865 18.595 3.884 37.643 8.655 56.656 18.153 70.485 63.998 141.423 137.087 212.773z" />
<glyph unicode="&#xe62f;" d="M255.922 480c-141.382 0-256-114.618-256-256s114.618-256 256-256 256 114.618 256 256c0.001 141.382-114.617 256-256 256zM157.586 154.14c-17.804 0-35.607 0-53.41 0-1.9-0.218-5.888 1.899-6.604 4.405-1.642 5.737 3.282 10.354 5.51 14.312 14.979 26.675 27.332 49.072 42.39 75.977 1.85 3.292 7.042 9.519 7.151 12.105 0.168 3.869-6.653 13.357-8.803 17.067-6.743 11.667-13.020 21.752-19.265 32.484-2.686 4.596-8.038 9.499-6.614 18.17 0.586 2.715 3.172 3.442 6.056 3.849 17.615 0 35.24 0 52.854 0 9.966-0.129 13.259-10.025 17.615-17.614 10.095-17.594 21.931-36.859 30.832-53.4-14.401-25.78-30.484-54.327-46.248-82.036-4.974-8.749-10.552-23.997-21.464-25.319zM387.161 372.145c-33.6-61.039-68.569-120.665-101.857-181.116 21.205-40.342 43.376-80.125 66.071-121.123 3.072-5.558 8.245-13.327 6.047-18.171-2.954-6.494-17.614-3.847-29.175-3.847-13.604 0-25.718-2.467-34.678 0.547-9.151 3.083-17.426 25.781-22.022 34.135-19.474 35.389-40.241 73.36-59.457 107.904 32.95 60.183 71.851 126.135 106.243 188.287 5.271 9.508 9.568 23.531 22.032 24.218 5.898 0.328 17.684-0.547 29.729-0.547 9.985 0 25.383 1.462 28.079-2.756 4.603-7.221-7.551-21.224-11.012-27.531z" />
<glyph unicode="&#xe630;" d="M255.913 480c-141.384 0-255.991-114.607-255.991-255.99 0-141.406 114.607-256.010 255.991-256.010 141.403 0 256.009 114.604 256.009 256.010 0 141.383-114.606 255.99-256.009 255.99zM359.75 264.094c-8.483-2.288-86.149-62.28-91.257-77.008-1.137-5.093 0.104-54.405 1.219-61.802 5.13-1.136 42.080-0.141 48.845-1.276l-0.803-15.239c-6.65 0.506-53.588 0.396-80.396 0.396-13.592 0-57.35-1.496-70.796-1.104l2.544 14.509c7.37 0.538 37.89-1.344 44.581 5.728 3.325 3.524 2.283 50.407 1.167 58.335-2.835 8.459-70.901 93.436-88.683 107.345h-45.843v21.362h154.602v-1.469c0.136 0 0.385-0.025 0.521-0.072l-0.521-3.57v-16.252h-46.625c20.785-30.263 50.565-66.813 63.261-84.381l62.29 56.214h-37.023l-5.213 21.342h135.59l-1.021-1.516c0.114 0 0.333-0.037 0.489-0.037l-9.684-13.968c-0.094 0-0.229-0.030-0.312-0.057l-3.888-5.764h-25.017c-3.253-0.712-6.098-1.321-8.027-1.716zM400.662 107.971l-11.354 0.851-10.514 0.906-0.137 22.812 13.354-1.642 11.977-0.591-3.326-22.336zM403.028 145.854l-20.784 1.679-0.552 96.339c4.775-0.932 41.498-4.399 45.528-4.54l-24.192-93.478z" />
<glyph unicode="&#xe631;" d="M223.638 126.326c0-8.419 0.505-12.639-0.031-14.118-1.642-4.522-9.044-9.315-11.916-0.492-0.489 1.543-0.057 6.213-0.067 14.204l-0.083 58.65h-20.1l0.051-57.725c0.022-8.846-0.192-15.453 0.073-18.444 0.495-5.292 0.318-11.473 5.194-14.993 9.101-6.595 26.522 0.979 30.884 10.42l-0.026-12.036 16.233-0.020v92.799h-20.213l0.001-58.245zM195.395 200.815v16.162l-64.638 0.103v-15.898l20.177-0.055v-109.384h20.224l-0.010 109.083 24.247-0.011zM252.348 287.466c4.929 0 8.946 4.459 8.946 9.92v51.348c0 5.449-4.017 9.91-8.946 9.91-4.913 0-8.951-4.46-8.951-9.91v-51.348c0-5.46 4.039-9.92 8.951-9.92zM276.080 180.956l0.077 36.042-20.193-0.031-0.104-124.407 16.614 0.25 1.505 7.751c21.24-19.609 34.572-6.188 34.548 17.316l-0.047 48.482c-0.011 18.474-13.749 29.539-32.4 14.597zM293.512 114.354c0-4.012-3.986-7.294-8.853-7.294-4.86 0-8.83 3.282-8.83 7.294v54.432c0 4.024 3.97 7.307 8.83 7.307 4.866 0 8.853-3.282 8.853-7.307v-54.432zM356.634 124.212c-0.010-0.594-0.028-1.304-0.034-2.054v-8.511c0-4.553-3.738-8.272-8.278-8.272h-2.978c-4.549 0-8.283 3.72-8.283 8.272v22.391h34.713v13.139c0 9.606-0.25 19.213-1.029 24.705-2.482 17.379-26.722 20.128-38.965 11.241-3.844-2.784-6.784-6.491-8.489-11.495-1.729-4.989-2.578-11.824-2.578-20.494v-28.904c0-48.056 58.001-41.261 51.085 0.062l-15.164-0.080zM337.414 163.295c0 4.981 4.064 9.046 9.024 9.046h1.224c4.97 0 9.045-4.064 9.045-9.046l-0.224-11.191h-19.152l0.083 11.191zM255.917 480c-141.383 0-255.995-114.606-255.995-255.99 0-141.394 114.612-256.010 255.995-256.010 141.385 0 256.004 114.616 256.004 256.010 0.001 141.384-114.618 255.99-256.004 255.99zM291.709 370.927h18.515v-75.063c0-4.063 3.335-7.387 7.384-7.387 4.062 0 7.388 3.324 7.388 7.387v75.063h17.741v-96.443h-22.532l0.38 7.981c-1.54-3.241-3.418-5.667-5.663-7.294-2.247-1.637-4.835-2.428-7.753-2.428-3.318 0-6.1 0.771-8.265 2.313-2.2 1.553-3.821 3.627-4.861 6.179-1.047 2.583-1.675 5.251-1.938 8.034-0.25 2.802-0.391 8.325-0.391 16.609v65.049h-0.005zM236.323 369.917c3.98 3.158 9.071 4.741 15.271 4.741 5.22 0 9.685-1.021 13.415-3.053 3.75-2.022 6.642-4.647 8.646-7.909 2.042-3.262 3.43-6.616 4.178-10.034 0.756-3.479 1.126-8.731 1.126-15.797v-24.392c0-8.939-0.359-15.524-1.048-19.704-0.683-4.188-2.163-8.074-4.435-11.712-2.25-3.604-5.153-6.304-8.686-8.024-3.552-1.739-7.621-2.583-12.221-2.583-5.137 0-9.461 0.708-13.035 2.209-3.58 1.479-6.34 3.709-8.304 6.68-1.991 2.969-3.392 6.595-4.236 10.814-0.85 4.22-1.257 10.555-1.257 19.016v25.539c0 9.252 0.766 16.473 2.292 21.694 1.538 5.19 4.304 9.367 8.294 12.515zM177.275 408.928l13.556-47.202 13.349 47.065h23.256l-25.121-63.361-0.027-73.969h-21.261l-0.037 73.938-26.72 63.528 23.005 0.001zM401.293 102.986c0-24.84-21.41-45.16-47.562-45.16h-195.618c-26.175 0-47.571 20.317-47.571 45.16v103.561c0 24.831 21.397 45.159 47.571 45.159h195.617c26.152 0 47.562-20.33 47.562-45.159v-103.561h0.001z" />
</font>
</defs>
</svg>
